<?xml version="1.0" encoding="utf-8"?>
<!-- Generator: Adobe Illustrator 21.1.0, SVG Export Plug-In . SVG Version: 6.00 Build 0)  -->
<svg version="1.1" xmlns="http://www.w3.org/2000/svg" xmlns:xlink="http://www.w3.org/1999/xlink" x="0px" y="0px"
	 viewBox="0 0 119.4 115.3" style="enable-background:new 0 0 119.4 115.3;" xml:space="preserve">
<style type="text/css">
	.st0{fill:#FFFFFF;}
	.st1{fill:none;stroke:#CFD1D2;stroke-width:3;stroke-linecap:round;stroke-linejoin:round;stroke-miterlimit:10;}
	.st2{fill:#FFFFFF;stroke:#CFD1D2;stroke-width:3;stroke-miterlimit:10;}
	.st3{fill:#F0F0F1;stroke:#DADADA;stroke-width:1.5;stroke-miterlimit:10;}
	.st4{fill:#F39322;}
	.st5{fill:#E3E4E3;stroke:#DADADA;stroke-width:2;stroke-miterlimit:10;}
	.st6{fill:#4E4D4D;}
	.st7{fill:#FFFFFF;stroke:#CCCBCB;stroke-miterlimit:10;}
	.st8{fill:#B3B3B2;}
	.st9{fill:#0971B7;}
	.st10{fill:#F8AE15;}
	.st11{fill:#676767;}
	.st12{fill:#F1F2F4;}
	.st13{fill:none;stroke:#A55299;stroke-miterlimit:10;}
	.st14{fill:none;stroke:#A55299;stroke-miterlimit:10;stroke-dasharray:12.2258,12.2258;}
	.st15{fill:none;stroke:#D0D2D3;stroke-width:3;stroke-linecap:round;stroke-linejoin:round;stroke-miterlimit:10;}
	.st16{fill:#FFFFFF;stroke:#D0D2D3;stroke-width:3;stroke-miterlimit:10;}
	.st17{fill:#F1F1F2;stroke:#DBDBDB;stroke-width:1.5;stroke-miterlimit:10;}
	.st18{fill:#F7941E;}
	.st19{fill:#E5E5E5;stroke:#DBDBDB;stroke-width:2;stroke-miterlimit:10;}
	.st20{fill:#D8DBDF;}
	.st21{fill:#BFC2C4;}
	.st22{fill:#FFFFFF;stroke:#FFFFFF;stroke-miterlimit:10;}
	.st23{fill:none;stroke:#000000;stroke-width:2;stroke-miterlimit:10;}
	.st24{fill:#4D4D4D;}
	.st25{fill:#666666;}
	.st26{fill:#FFFFFF;stroke:#CCCCCC;stroke-miterlimit:10;}
	.st27{fill:#808080;}
	.st28{fill:#B3B3B3;}
	.st29{fill:#FFB000;}
	.st30{fill:#F2F3F5;}
	.st31{fill:none;stroke:#FF00FF;stroke-miterlimit:10;}
	.st32{fill:none;stroke:#FF00FF;stroke-miterlimit:10;stroke-dasharray:12.2258,12.2258;}
	.st33{opacity:0.2;fill:#28348A;}
	.st34{fill:#FFFFFF;stroke:#C1272D;stroke-miterlimit:10;}
	.st35{fill:#C1272D;}
	.st36{fill:#009245;}
	.st37{fill:#999999;}
	.st38{fill:none;stroke:#E6E6E6;stroke-width:0.5;stroke-miterlimit:10;}
	.st39{fill-rule:evenodd;clip-rule:evenodd;fill:#FFFFFF;}
	.st40{opacity:0.5;}
	.st41{fill:#282725;}
	.st42{opacity:0.3;}
	.st43{fill:none;stroke:#FF00FF;stroke-miterlimit:10;stroke-dasharray:11.927,11.927;}
	.st44{opacity:0.1;}
	.st45{fill:#CCCCCC;}
	.st46{opacity:0.2;fill:#F8AE15;}
	.st47{opacity:0.3;fill:#1D70B7;}
	.st48{opacity:0.3;fill:#662482;}
	.st49{opacity:0.3;fill:#DDDB00;}
	.st50{opacity:0.3;fill:#009540;}
	.st51{fill:none;stroke:#4E4D4D;stroke-miterlimit:10;}
	.st52{fill:none;stroke:#4E4D4D;stroke-miterlimit:10;stroke-dasharray:7.467,7.467;}
	.st53{fill:none;stroke:#4E4D4D;stroke-miterlimit:10;stroke-dasharray:10.1756,10.1756;}
	.st54{opacity:0.3;fill:#006633;}
	.st55{opacity:0.3;fill:#BD1622;}
</style>
<g id="Layer_1">
	<g>
		<path class="st21" d="M52.3,17.3l-29,54.5c-5.4,10.2-0.6,25.9,9.6,31.3c10.2,5.4,25.9,0.7,31.3-9.6l32.7-61.4
			c3.6-6.8,0.4-17.2-6.4-20.8c-6.8-3.6-17.3-0.4-20.9,6.3l-29,54.5c-1.8,3.4-0.2,8.6,3.2,10.5c3.4,1.8,8.7,0.2,10.5-3.2l25.4-47.7
			l6.8,3.6L61,83.2c-3.6,6.8-14,10-20.8,6.4c-6.8-3.6-10-14-6.4-20.9l29-54.5c5.4-10.2,21.1-15,31.3-9.5c10.2,5.4,15,21.1,9.6,31.3
			L71,97.2c-7.2,13.6-28.1,20-41.8,12.8c-13.6-7.3-20-28.1-12.8-41.8l29-54.5L52.3,17.3z M52.3,17.3"/>
	</g>
</g>
<g id="guidelines">
</g>
</svg>
