<?xml version="1.0" encoding="utf-8"?>
<!-- Generator: Adobe Illustrator 21.1.0, SVG Export Plug-In . SVG Version: 6.00 Build 0)  -->
<svg version="1.1" xmlns="http://www.w3.org/2000/svg" xmlns:xlink="http://www.w3.org/1999/xlink" x="0px" y="0px"
	 viewBox="0 0 374.9 71.2" style="enable-background:new 0 0 374.9 71.2;" xml:space="preserve">
<style type="text/css">
	.st0{fill:#FFFFFF;}
	.st1{fill:none;stroke:#D0D2D3;stroke-width:3;stroke-linecap:round;stroke-linejoin:round;stroke-miterlimit:10;}
	.st2{fill:#FFFFFF;stroke:#D0D2D3;stroke-width:3;stroke-miterlimit:10;}
	.st3{fill:#F1F1F2;stroke:#DBDBDB;stroke-width:1.5;stroke-miterlimit:10;}
	.st4{fill:#F7941E;}
	.st5{fill:#E5E5E5;stroke:#DBDBDB;stroke-width:2;stroke-miterlimit:10;}
	.st6{opacity:3.000000e-02;fill:url(#);}
	.st7{fill:#999999;}
	.st8{fill:#FFB000;}
	.st9{opacity:0.5;}
	.st10{fill:#282725;}
	.st11{fill-rule:evenodd;clip-rule:evenodd;fill:#FFFFFF;}
	.st12{opacity:0.3;}
	.st13{display:none;}
	.st14{display:inline;}
	.st15{fill:#606060;}
	.st16{display:inline;opacity:0.7;fill:#22B573;}
	.st17{display:inline;opacity:0.5;fill:#E6E6E6;}
	.st18{fill:none;stroke:#FF00FF;stroke-miterlimit:10;}
	.st19{fill:none;stroke:#FF00FF;stroke-miterlimit:10;stroke-dasharray:11.7009,11.7009;}
	.st20{fill:#666666;}
	.st21{fill:#272727;}
	.st22{clip-path:url(#SVGID_20_);}
	.st23{fill:url(#w45va_2_);}
	.st24{clip-path:url(#SVGID_22_);}
	.st25{fill:#0161CD;}
	.st26{fill:url(#w45vf_2_);}
	.st27{fill:#2C8CF4;}
	.st28{fill:#0353A7;}
	.st29{fill:none;stroke:#000000;stroke-miterlimit:10;}
	.st30{fill:none;stroke:#000000;stroke-miterlimit:10;stroke-dasharray:12.2258,12.2258;}
	.st31{fill:none;}
	.st32{fill:none;stroke:#000000;stroke-miterlimit:10;stroke-dasharray:11.973,11.973;}
	.st33{clip-path:url(#SVGID_24_);}
	.st34{fill-rule:evenodd;clip-rule:evenodd;fill:#050008;}
	.st35{clip-path:url(#SVGID_26_);}
	.st36{opacity:0.5;fill:none;stroke:#000000;stroke-miterlimit:10;}
	.st37{opacity:0.3;fill:none;stroke:#000000;stroke-miterlimit:10;}
	.st38{fill:#070606;}
	.st39{fill:#FFFFFF;stroke:#CCCCCC;stroke-miterlimit:10;}
	.st40{fill:#CCCCCC;}
	.st41{fill:#4D4D4D;}
	.st42{fill:#B3B3B3;}
	.st43{fill:none;stroke:#B3B3B3;stroke-miterlimit:10;}
	.st44{fill:#00FF00;}
	.st45{fill:#D8DBDF;}
	.st46{fill:#BFC2C4;}
	.st47{fill:#FFFFFF;stroke:#FFFFFF;stroke-miterlimit:10;}
	.st48{fill:none;stroke:#000000;stroke-width:2;stroke-miterlimit:10;}
	.st49{fill:#808080;}
	.st50{fill:#0071BC;}
	.st51{clip-path:url(#SVGID_28_);}
	.st52{clip-path:url(#SVGID_30_);}
	.st53{opacity:0.2;fill:#29ABE2;}
	.st54{fill:#FF7BAC;}
	.st55{clip-path:url(#SVGID_32_);}
	.st56{fill:none;stroke:#FF00FF;stroke-miterlimit:10;stroke-dasharray:11.927,11.927;}
	.st57{fill:#F4F4F4;}
	.st58{fill:#494949;}
	.st59{opacity:0.6;}
	.st60{fill:#FFFFFF;stroke:#B3B3B3;stroke-miterlimit:10;}
	.st61{fill:#0076FF;}
	.st62{fill:none;stroke:#D8DBDF;stroke-miterlimit:10;}
	.st63{fill:none;stroke:#BFC2C4;stroke-miterlimit:10;}
	.st64{opacity:0.2;fill:#FFFFFF;}
	.st65{opacity:0.5;fill:#FFFFFF;}
	.st66{fill:#FFFFFF;stroke:#C1272D;stroke-miterlimit:10;}
	.st67{fill:#C1272D;}
	.st68{fill:#FFFFFF;stroke:#009245;stroke-miterlimit:10;}
	.st69{fill:#009245;}
	.st70{fill:#F2F3F5;}
	.st71{fill:#E9E9E9;}
	.st72{fill:#FFFFFF;stroke:#E6E6E6;stroke-width:0.5;stroke-miterlimit:10;}
	.st73{fill:none;stroke:#FF7BAC;stroke-miterlimit:10;}
	.st74{fill:none;stroke:#0071BC;stroke-miterlimit:10;}
	.st75{fill:none;stroke:#C1272D;stroke-miterlimit:10;}
	.st76{fill:none;stroke:#009245;stroke-miterlimit:10;}
	.st77{clip-path:url(#SVGID_108_);}
	.st78{clip-path:url(#SVGID_112_);}
	.st79{clip-path:url(#SVGID_114_);}
	.st80{fill:url(#w45va_3_);}
	.st81{clip-path:url(#SVGID_116_);}
	.st82{fill:url(#w45vf_3_);}
	.st83{opacity:0.6;fill:#FFFFFF;}
	.st84{fill:none;stroke:#FF00FF;stroke-miterlimit:10;stroke-dasharray:12.2258,12.2258;}
	.st85{opacity:0.3;fill:#FF7BAC;}
	.st86{display:inline;opacity:0.4;fill:#FF3500;}
	.st87{display:inline;opacity:0.5;fill:#FF3500;}
	.st88{opacity:0.3;fill:#FF3500;}
	.st89{fill:#FF3500;}
	.st90{display:inline;opacity:0.5;fill:#0071BC;}
	.st91{display:inline;opacity:0.5;fill:#FFB000;}
	.st92{display:inline;opacity:0.5;fill:#ED1C24;}
	.st93{display:inline;opacity:0.5;fill:#D9E021;}
</style>
<g id="iPhone">
</g>
<g id="bg_grey">
</g>
<g id="Chats">
</g>
<g id="Chat_Actions">
</g>
<g id="Bg_Header">
</g>
<g id="Search_Icon">
</g>
<g id="Tabs_Menu">
</g>
<g id="Logo">
</g>
<g id="Profile_Icon">
</g>
<g id="guidances" class="st13">
</g>
<g id="Prove_Logo">
</g>
<g id="screen_borders">
</g>
<g id="Wireframe">
</g>
<g id="Palette">
</g>
<g id="Header_x2F_Footer">
	<g>
		<defs>
			<path id="SVGID_111_" d="M503.9,73.8h-632.8c-4.4,0-8-3.6-8-8V5.4c0-4.4,3.6-8,8-8h632.8c4.4,0,8,3.6,8,8v60.3
				C511.8,70.2,508.3,73.8,503.9,73.8z"/>
		</defs>
		<clipPath id="SVGID_2_">
			<use xlink:href="#SVGID_111_"  style="overflow:visible;"/>
		</clipPath>
		<g style="clip-path:url(#SVGID_2_);">
			<defs>
				<rect id="SVGID_113_" x="-13.4" y="-251.6" width="401.8" height="567.9"/>
			</defs>
			<clipPath id="SVGID_4_">
				<use xlink:href="#SVGID_113_"  style="overflow:visible;"/>
			</clipPath>
			<g style="clip-path:url(#SVGID_4_);">
				<g>
					<g>
						<g>
							<g>
								
									<linearGradient id="w45va_2_" gradientUnits="userSpaceOnUse" x1="1377.5687" y1="5672.7139" x2="102.7345" y2="5653.3857" gradientTransform="matrix(0 -1 -1 0 5847.9673 1205.4963)">
									<stop  offset="0" style="stop-color:#0161CD"/>
									<stop  offset="1" style="stop-color:#0353A7"/>
								</linearGradient>
								<path id="w45va_1_" class="st23" d="M388,1499.1H-13.8v-1783H388V1499.1z"/>
							</g>
						</g>
						<g>
							<defs>
								<rect id="SVGID_115_" x="-13.8" y="-283.9" width="401.8" height="1783"/>
							</defs>
							<clipPath id="SVGID_6_">
								<use xlink:href="#SVGID_115_"  style="overflow:visible;"/>
							</clipPath>
							<g style="clip-path:url(#SVGID_6_);">
								<g>
									<g>
										<path id="w45vd_1_" class="st25" d="M145.7,305.1C88.3,181,217.3,81.7,120,36.3c-97.2-45.4,8.6-262.4,209.2-190.3
											C529.8-81.8,222.9,67.9,408.1,86.4c185.2,18.6,68,199.1-9.4,259.7C321.3,406.7,203.1,429.2,145.7,305.1L145.7,305.1z"/>
									</g>
								</g>
								<g>
									<g>
										
											<linearGradient id="w45vf_2_" gradientUnits="userSpaceOnUse" x1="1378.2861" y1="5449.1523" x2="1093.3765" y2="5578.3618" gradientTransform="matrix(0 -1 -1 0 5847.9673 1205.4963)">
											<stop  offset="0" style="stop-color:#1273EB"/>
											<stop  offset="1" style="stop-color:#2C8CF4"/>
										</linearGradient>
										<path id="w45vf_1_" class="st26" d="M187.2-159.2c19,31.2,101.6,8.2,109.5,35.5c4.8,16.4-23.3,30.1-41.7,54.6
											c-7.2,9.6-12.9,20.8-14.6,34.5c-0.3,2.7-0.5,5.5-0.5,8.1c0.1,8.1,1.5,16,4.1,23.7c11.1,33.1,41.4,58.1,47.4,63
											c2.7,2.2,6.4,5.3,10.9,8.7c6.2,4.7,12.7,8.9,19.5,12.7c12.3,6.8,26.8,12.3,41.8,12.3h0.3c5.9,0,12-0.9,18-2.9
											c15.2-5.1,27.2-16.5,36.2-30.8c4.9-7.9,9-16.7,12-25.9c5.5-16.6,8.2-34.5,6.9-52c-3.2-41.8-29.3-55-23.5-96.2
											c3.5-24.7,18-55.8,37.2-58.1c21.9-2.6,29.3,34.9,68.2,48.7c24.3,8.6,52.9,5.3,71.9-5.6c50.5-28.8,60.1-126.3,24.2-188.1
											c-35.7-61.3-109.1-75.1-156.4-77.2c-11.4-0.5-21.3-0.3-28.8,0c-5,0.2-9.9,0.6-14.9,1.2c-37.9,4.9-73,19.3-103.8,38.8
											c-78,49.4-128.5,131.8-128.5,176.1C182.7-170.6,184.2-164.2,187.2-159.2"/>
									</g>
								</g>
								<g>
									<g>
										<path id="w45vi_1_" class="st28" d="M-201-55c51.5-126.7,211.9-100,178.8-202.1s197.5-172.7,281.6,23.5
											C343.5-37.5,24.9-160.3,137.6-12c112.7,148.3-99,185.6-196.1,170.3C-155.5,142.9-252.5,71.7-201-55L-201-55z"/>
									</g>
								</g>
							</g>
						</g>
					</g>
				</g>
			</g>
		</g>
	</g>
</g>
<g id="Layer_17">
</g>
<g id="Grid">
</g>
<g id="Modale">
</g>
<g id="Bootstrap_Grid" class="st13">
</g>
<g id="Our_Grid" class="st13">
</g>
<g id="Layer_20" class="st13">
</g>
<g id="Layer_22" class="st13">
</g>
<g id="linee_guida" class="st13">
</g>
</svg>
