<?xml version="1.0" encoding="utf-8"?>
<!-- Generator: Adobe Illustrator 21.1.0, SVG Export Plug-In . SVG Version: 6.00 Build 0)  -->
<svg version="1.1" xmlns="http://www.w3.org/2000/svg" xmlns:xlink="http://www.w3.org/1999/xlink" x="0px" y="0px"
	 viewBox="0 0 479.1 86.4" style="enable-background:new 0 0 479.1 86.4;" xml:space="preserve">
<style type="text/css">
	.st0{fill:#FFFFFF;}
	.st1{fill:none;stroke:#D0D2D3;stroke-width:3;stroke-linecap:round;stroke-linejoin:round;stroke-miterlimit:10;}
	.st2{fill:#FFFFFF;stroke:#D0D2D3;stroke-width:3;stroke-miterlimit:10;}
	.st3{fill:#F1F1F2;stroke:#DBDBDB;stroke-width:1.5;stroke-miterlimit:10;}
	.st4{fill:#F7941E;}
	.st5{fill:#E5E5E5;stroke:#DBDBDB;stroke-width:2;stroke-miterlimit:10;}
	.st6{opacity:3.000000e-02;fill:url(#);}
	.st7{fill:#999999;}
	.st8{fill:#FFB000;}
	.st9{opacity:0.5;}
	.st10{fill:#282725;}
	.st11{fill-rule:evenodd;clip-rule:evenodd;fill:#FFFFFF;}
	.st12{opacity:0.3;}
	.st13{display:none;}
	.st14{display:inline;}
	.st15{fill:#606060;}
	.st16{display:inline;opacity:0.7;fill:#22B573;}
	.st17{display:inline;opacity:0.5;fill:#E6E6E6;}
	.st18{fill:none;stroke:#FF00FF;stroke-miterlimit:10;}
	.st19{fill:none;stroke:#FF00FF;stroke-miterlimit:10;stroke-dasharray:11.7009,11.7009;}
	.st20{fill:#666666;}
	.st21{fill:#272727;}
	.st22{clip-path:url(#SVGID_20_);}
	.st23{fill:url(#w45va_1_);}
	.st24{clip-path:url(#SVGID_22_);}
	.st25{fill:#0161CD;}
	.st26{fill:url(#w45vf_1_);}
	.st27{fill:#2C8CF4;}
	.st28{fill:#0353A7;}
	.st29{fill:none;stroke:#000000;stroke-miterlimit:10;}
	.st30{fill:none;stroke:#000000;stroke-miterlimit:10;stroke-dasharray:12.2258,12.2258;}
	.st31{fill:none;}
	.st32{fill:none;stroke:#000000;stroke-miterlimit:10;stroke-dasharray:11.973,11.973;}
	.st33{clip-path:url(#SVGID_24_);}
	.st34{fill-rule:evenodd;clip-rule:evenodd;fill:#050008;}
	.st35{clip-path:url(#SVGID_26_);}
	.st36{opacity:0.5;fill:none;stroke:#000000;stroke-miterlimit:10;}
	.st37{opacity:0.3;fill:none;stroke:#000000;stroke-miterlimit:10;}
	.st38{fill:#070606;}
	.st39{fill:#FFFFFF;stroke:#CCCCCC;stroke-miterlimit:10;}
	.st40{fill:#CCCCCC;}
	.st41{fill:#4D4D4D;}
	.st42{fill:#B3B3B3;}
	.st43{fill:none;stroke:#B3B3B3;stroke-miterlimit:10;}
	.st44{fill:#00FF00;}
	.st45{fill:#D8DBDF;}
	.st46{fill:#BFC2C4;}
	.st47{fill:#FFFFFF;stroke:#FFFFFF;stroke-miterlimit:10;}
	.st48{fill:none;stroke:#000000;stroke-width:2;stroke-miterlimit:10;}
	.st49{fill:#808080;}
	.st50{fill:#0071BC;}
	.st51{clip-path:url(#SVGID_28_);}
	.st52{clip-path:url(#SVGID_30_);}
	.st53{opacity:0.2;fill:#29ABE2;}
	.st54{fill:#FF7BAC;}
	.st55{clip-path:url(#SVGID_32_);}
	.st56{fill:none;stroke:#FF00FF;stroke-miterlimit:10;stroke-dasharray:11.927,11.927;}
	.st57{fill:#F4F4F4;}
	.st58{fill:#494949;}
	.st59{opacity:0.6;}
	.st60{fill:#FFFFFF;stroke:#B3B3B3;stroke-miterlimit:10;}
	.st61{fill:#0076FF;}
	.st62{fill:none;stroke:#D8DBDF;stroke-miterlimit:10;}
	.st63{fill:none;stroke:#BFC2C4;stroke-miterlimit:10;}
	.st64{opacity:0.2;fill:#FFFFFF;}
	.st65{opacity:0.5;fill:#FFFFFF;}
	.st66{fill:#FFFFFF;stroke:#C1272D;stroke-miterlimit:10;}
	.st67{fill:#C1272D;}
	.st68{fill:#FFFFFF;stroke:#009245;stroke-miterlimit:10;}
	.st69{fill:#009245;}
	.st70{fill:#F2F3F5;}
	.st71{fill:#E9E9E9;}
	.st72{fill:#FFFFFF;stroke:#E6E6E6;stroke-width:0.5;stroke-miterlimit:10;}
	.st73{fill:none;stroke:#FF7BAC;stroke-miterlimit:10;}
	.st74{fill:none;stroke:#0071BC;stroke-miterlimit:10;}
	.st75{fill:none;stroke:#C1272D;stroke-miterlimit:10;}
	.st76{fill:none;stroke:#009245;stroke-miterlimit:10;}
	.st77{clip-path:url(#SVGID_108_);}
	.st78{opacity:0.6;fill:#FFFFFF;}
	.st79{fill:none;stroke:#FF00FF;stroke-miterlimit:10;stroke-dasharray:12.2258,12.2258;}
	.st80{opacity:0.3;fill:#FF7BAC;}
	.st81{display:inline;opacity:0.4;fill:#FF3500;}
	.st82{display:inline;opacity:0.5;fill:#FF3500;}
	.st83{opacity:0.3;fill:#FF3500;}
	.st84{fill:#FF3500;}
	.st85{display:inline;opacity:0.5;fill:#0071BC;}
	.st86{display:inline;opacity:0.5;fill:#FFB000;}
	.st87{display:inline;opacity:0.5;fill:#ED1C24;}
	.st88{display:inline;opacity:0.5;fill:#D9E021;}
</style>
<g id="iPhone">
</g>
<g id="bg_grey">
</g>
<g id="Chats">
</g>
<g id="Chat_Actions">
</g>
<g id="Bg_Header">
</g>
<g id="Search_Icon">
</g>
<g id="Tabs_Menu">
</g>
<g id="Logo">
</g>
<g id="Profile_Icon">
</g>
<g id="guidances" class="st13">
</g>
<g id="Prove_Logo">
</g>
<g id="screen_borders">
	<g>
		<g>
			<path class="st21" d="M20.7,80.3c-0.3,0.6-0.5,1.1-0.7,1.5c-0.2,0.4-0.4,0.8-0.6,1.1c-0.2,0.3-0.5,0.5-0.9,0.7s-0.8,0.2-1.4,0.2
				H8.1c-2.5,0-3.7-1.2-3.7-3.5V11.4c0-0.5,0.1-1,0.3-1.4c0.2-0.4,0.5-0.8,0.8-1.1c0.3-0.3,0.7-0.5,1.1-0.7s0.8-0.3,1.2-0.3h10.5
				c1.2,0,2.1,0.3,2.8,1c0.7,0.7,1,1.5,1,2.5v21c0.9-0.9,1.8-1.9,2.8-2.8c1-1,2-1.8,3.2-2.6c1.2-0.8,2.4-1.4,3.8-1.9
				c1.4-0.5,2.9-0.7,4.6-0.7c4.2,0,8,0.8,11.5,2.3c3.5,1.6,6.5,3.7,9.1,6.4c2.5,2.7,4.5,5.9,5.9,9.6s2.1,7.6,2.1,11.9
				c0,4.2-0.7,8.2-2.1,11.9c-1.4,3.7-3.4,6.9-5.9,9.6s-5.6,4.9-9.1,6.4c-3.5,1.6-7.4,2.3-11.5,2.3c-1.6,0-3-0.3-4.4-0.8
				c-1.4-0.5-2.7-1.2-3.9-2c-1.2-0.8-2.3-1.7-3.3-2.7c-1-1-1.9-1.8-2.8-2.7L20.7,80.3z M48.5,54.6c0-2-0.3-3.8-0.9-5.6
				c-0.6-1.8-1.5-3.4-2.7-4.7c-1.2-1.4-2.6-2.4-4.2-3.2c-1.6-0.8-3.5-1.2-5.5-1.2c-2,0-3.9,0.4-5.7,1.2c-1.8,0.8-3.3,1.9-4.6,3.2
				c-1.3,1.4-2.3,2.9-3.1,4.7s-1.1,3.7-1.1,5.6v0.6c0.1,1.9,0.5,3.8,1.3,5.4c0.8,1.7,1.8,3.2,3.1,4.4c1.3,1.2,2.8,2.2,4.5,2.9
				c1.7,0.7,3.6,1.1,5.5,1.1c2,0,3.9-0.4,5.5-1.1s3-1.8,4.2-3.1s2.1-2.8,2.7-4.6C48.2,58.5,48.5,56.6,48.5,54.6z"/>
			<path class="st21" d="M71.6,11.5c0-1,0.2-1.8,0.7-2.5c0.5-0.7,1.3-1,2.5-1h11.3c0.3,0,0.6,0.1,1,0.3s0.7,0.4,0.9,0.7
				c0.3,0.3,0.5,0.7,0.7,1.1c0.2,0.4,0.3,0.9,0.3,1.4v68.8c0,1.2-0.3,2.1-1,2.6c-0.7,0.6-1.5,0.9-2.6,0.9H74.9c-1.2,0-2-0.3-2.5-0.9
				c-0.5-0.6-0.7-1.5-0.7-2.6V11.5z"/>
			<path class="st21" d="M220,11.9c0-1,0.2-1.8,0.7-2.5c0.5-0.7,1.3-1,2.5-1h11.3c0.3,0,0.6,0.1,1,0.3c0.3,0.2,0.7,0.4,0.9,0.7
				c0.3,0.3,0.5,0.7,0.7,1.1c0.2,0.4,0.3,0.9,0.3,1.4v68.8c0,1.2-0.3,2.1-1,2.6c-0.7,0.6-1.5,0.9-2.6,0.9h-10.7
				c-1.2,0-2-0.3-2.5-0.9c-0.5-0.6-0.7-1.5-0.7-2.6V11.9z"/>
			<path class="st21" d="M157.6,80.4c0,0.5-0.1,1-0.3,1.5c-0.2,0.5-0.5,0.9-0.9,1.1c-0.3,0.3-0.7,0.6-1.2,0.6
				c-0.5,0.1-0.9,0.1-1.2,0.1h-9.1c-0.6,0-1.2-0.1-1.6-0.3c-0.4-0.2-0.7-0.4-1-0.7c-0.2-0.3-0.5-0.7-0.6-1.1
				c-0.2-0.4-0.3-0.9-0.5-1.5l-1.3-3.5c-0.8,0.8-1.7,1.7-2.7,2.6c-1,0.9-2.1,1.8-3.2,2.6c-1.2,0.8-2.5,1.5-3.8,2
				c-1.4,0.5-2.9,0.8-4.4,0.8c-2.8,0-5.5-0.4-8-1.1c-2.6-0.7-5-1.7-7.2-3c-2.2-1.3-4.2-2.9-6.1-4.7c-1.8-1.8-3.4-3.9-4.7-6.1
				c-1.3-2.2-2.3-4.7-3-7.3s-1.1-5.3-1.1-8.1c0-4.3,0.8-8.2,2.3-11.9c1.6-3.7,3.7-6.9,6.4-9.6c2.7-2.7,5.9-4.9,9.5-6.4
				c3.7-1.6,7.6-2.3,11.7-2.3c1.9,0,3.7,0.3,5.3,0.9c1.6,0.6,3,1.3,4.4,2.2c1.3,0.9,2.5,2,3.5,3.1c1.1,1.2,2,2.3,2.8,3.5l1.8-5.6
				c0.3-0.8,0.6-1.4,0.8-1.9c0.2-0.5,0.4-0.8,0.6-1.1c0.2-0.2,0.5-0.4,0.9-0.5s0.8-0.1,1.4-0.1h6.9c0.3,0,0.7,0,1.2,0.1
				c0.5,0.1,0.9,0.3,1.2,0.6c0.4,0.3,0.7,0.7,0.9,1.2s0.3,0.9,0.3,1.5V80.4z M112.2,54.6c0,2,0.3,3.9,0.9,5.7
				c0.6,1.8,1.5,3.3,2.7,4.6c1.2,1.3,2.6,2.3,4.2,3.1c1.6,0.8,3.5,1.1,5.5,1.1c2.1,0,4-0.4,5.7-1.1c1.8-0.8,3.3-1.8,4.6-3.1
				c1.3-1.3,2.3-2.8,3.1-4.6c0.7-1.8,1.1-3.7,1.1-5.7c0-2-0.4-3.8-1.1-5.6s-1.8-3.4-3.1-4.7c-1.3-1.4-2.8-2.4-4.6-3.2
				c-1.8-0.8-3.7-1.2-5.7-1.2c-2,0-3.8,0.4-5.5,1.2c-1.6,0.8-3,1.9-4.2,3.2c-1.2,1.4-2.1,2.9-2.7,4.7S112.2,52.6,112.2,54.6z"/>
			<path class="st21" d="M203.3,65.8c0.4-0.3,0.8-0.5,1.2-0.6s0.7-0.1,0.9-0.1c0.5,0,1,0.1,1.4,0.3c0.4,0.2,0.9,0.7,1.3,1.4l5.2,7.8
				c0.2,0.2,0.3,0.5,0.4,0.8c0.1,0.3,0.2,0.6,0.2,0.7c0,0.7-0.2,1.3-0.7,1.7c-0.4,0.4-0.9,0.8-1.5,1.2c-2.5,1.7-5.3,3.2-8.3,4.2
				c-3,1.1-6.2,1.6-9.5,1.6c-2.8,0-5.4-0.4-8-1.1s-5-1.7-7.2-3c-2.2-1.3-4.2-2.9-6.1-4.7c-1.8-1.8-3.4-3.9-4.7-6.1
				c-1.3-2.2-2.3-4.7-3-7.3c-0.7-2.6-1.1-5.3-1.1-8.1s0.4-5.5,1.1-8.2c0.7-2.6,1.7-5,3-7.3c1.3-2.2,2.9-4.3,4.7-6.1
				c1.8-1.8,3.9-3.4,6.1-4.7c2.2-1.3,4.6-2.3,7.2-3c2.6-0.7,5.2-1.1,8-1.1c3.3,0,6.4,0.4,9.3,1.3c2.8,0.9,5.5,2.2,8,4l-0.1-0.1
				c0.7,0.4,1.2,0.9,1.6,1.4c0.4,0.5,0.6,1.2,0.6,2c0,0.6-0.2,1.1-0.6,1.7l-4.1,7c-0.9,1.5-1.9,2.3-3.1,2.3c-0.3,0-0.6-0.1-1-0.2
				c-0.4-0.1-0.8-0.4-1.3-0.7c-1.4-0.9-2.8-1.6-4.4-2.2c-1.6-0.6-3.2-0.9-5-0.9c-1.9,0-3.7,0.4-5.3,1.2c-1.6,0.8-3,1.9-4.2,3.2
				c-1.2,1.4-2,2.9-2.7,4.7s-1,3.7-1,5.6c0,2,0.3,3.9,1,5.7c0.6,1.8,1.5,3.3,2.7,4.6s2.5,2.3,4.2,3.1s3.4,1.1,5.3,1.1
				c1.8,0,3.4-0.3,4.9-0.9C200.5,67.6,201.9,66.8,203.3,65.8z"/>
			<path class="st21" d="M293.6,80.3c-0.3,0.6-0.5,1.1-0.7,1.5c-0.2,0.4-0.4,0.8-0.6,1.1c-0.2,0.3-0.5,0.5-0.9,0.7s-0.8,0.2-1.4,0.2
				h-9.1c-2.5,0-3.7-1.2-3.7-3.5V11.4c0-0.5,0.1-1,0.3-1.4c0.2-0.4,0.5-0.8,0.8-1.1c0.3-0.3,0.7-0.5,1.1-0.7
				c0.4-0.2,0.8-0.3,1.2-0.3h10.5c1.2,0,2.1,0.3,2.8,1c0.7,0.7,1,1.5,1,2.5v21c0.9-0.9,1.8-1.9,2.8-2.8c1-1,2-1.8,3.2-2.6
				c1.2-0.8,2.4-1.4,3.8-1.9c1.4-0.5,2.9-0.7,4.6-0.7c4.2,0,8,0.8,11.5,2.3c3.5,1.6,6.5,3.7,9.1,6.4c2.5,2.7,4.5,5.9,5.9,9.6
				c1.4,3.7,2.1,7.6,2.1,11.9c0,4.2-0.7,8.2-2.1,11.9c-1.4,3.7-3.4,6.9-5.9,9.6c-2.5,2.7-5.6,4.9-9.1,6.4c-3.5,1.6-7.4,2.3-11.5,2.3
				c-1.6,0-3-0.3-4.4-0.8c-1.4-0.5-2.7-1.2-3.9-2c-1.2-0.8-2.3-1.7-3.3-2.7s-1.9-1.8-2.8-2.7L293.6,80.3z M321.3,54.6
				c0-2-0.3-3.8-0.9-5.6c-0.6-1.8-1.5-3.4-2.7-4.7c-1.2-1.4-2.6-2.4-4.2-3.2c-1.6-0.8-3.5-1.2-5.5-1.2c-2,0-3.9,0.4-5.7,1.2
				c-1.8,0.8-3.3,1.9-4.6,3.2c-1.3,1.4-2.3,2.9-3.1,4.7c-0.8,1.8-1.1,3.7-1.1,5.6v0.6c0.1,1.9,0.5,3.8,1.3,5.4
				c0.8,1.7,1.8,3.2,3.1,4.4c1.3,1.2,2.8,2.2,4.5,2.9c1.7,0.7,3.6,1.1,5.5,1.1c2,0,3.9-0.4,5.5-1.1c1.6-0.8,3-1.8,4.2-3.1
				c1.2-1.3,2.1-2.8,2.7-4.6C321,58.5,321.3,56.6,321.3,54.6z"/>
			<path class="st21" d="M344.4,5.6c0-1.3,0.3-2.2,0.8-2.7c0.6-0.5,1.4-0.8,2.6-0.8h10.7c1.1,0,1.9,0.3,2.6,0.8c0.7,0.5,1,1.5,1,2.7
				v9c0,0.4-0.1,0.8-0.3,1.2s-0.4,0.8-0.7,1.2s-0.7,0.7-1.1,1c-0.4,0.3-0.9,0.4-1.5,0.4h-10.7c-2.3,0-3.4-1.3-3.4-3.8V5.6z
				 M344.4,28.9c0-1,0.3-1.8,0.8-2.5c0.6-0.7,1.4-1.1,2.6-1.1h10.5c0.4,0,0.8,0.1,1.2,0.3s0.8,0.4,1.2,0.7s0.7,0.7,0.9,1.1
				c0.3,0.4,0.4,0.9,0.4,1.5v51.4c0,1.2-0.3,2.1-1,2.6c-0.6,0.6-1.6,0.9-2.8,0.9h-10.5c-2.3,0-3.4-1.2-3.4-3.5V28.9z"/>
			<path class="st21" d="M256.8,28.8c0.7-0.7,1.5-1.1,2.4-1.2c0.9-0.1,1.7,0.2,2.6,1.1l7.5,7.5c0.3,0.3,0.5,0.6,0.7,1
				c0.2,0.4,0.3,0.9,0.3,1.4c0,0.5,0,1-0.1,1.5c-0.1,0.5-0.4,0.9-0.8,1.3l-24.8,24.8c-0.8,0.8-1.7,1.2-2.6,1.2
				c-0.9,0-1.7-0.5-2.6-1.3l-7.5-7.5c-1.6-1.6-1.6-3.2,0.1-4.9L256.8,28.8z"/>
			<path class="st21" d="M231.9,58.8c-0.7-0.7-1.1-1.5-1.2-2.4c-0.1-0.9,0.2-1.7,1.1-2.6l7.5-7.5c0.3-0.3,0.6-0.5,1-0.7
				c0.4-0.2,0.9-0.3,1.4-0.3c0.5,0,1,0,1.5,0.1c0.5,0.1,0.9,0.4,1.3,0.8l24.8,24.8c0.8,0.8,1.2,1.7,1.2,2.6c0,0.9-0.5,1.7-1.3,2.6
				l-7.5,7.5c-1.6,1.6-3.2,1.6-4.9-0.1L231.9,58.8z"/>
			<path class="st21" d="M370.3,28.7c0-0.5,0.1-1,0.3-1.5c0.2-0.5,0.5-0.9,0.9-1.1c0.8-0.5,1.6-0.8,2.5-0.8h7c0.6,0,1,0.1,1.4,0.3
				c0.3,0.2,0.6,0.5,0.9,0.8c0.2,0.3,0.4,0.7,0.6,1.2c0.2,0.4,0.4,0.9,0.6,1.3c0.1,0.1,0.2,0.4,0.4,0.9c0.2,0.5,0.4,1,0.6,1.6
				c0.2,0.6,0.4,1.1,0.6,1.6c0.2,0.5,0.3,0.8,0.4,1c0.9-1,1.8-2.1,2.6-3.2c0.8-1.1,1.7-2.2,2.7-3.1c1-1,2-1.7,3.2-2.3
				c1.2-0.6,2.5-0.9,4.1-0.9c1.7,0,3.1,0.1,4.4,0.4c1.3,0.2,2.5,0.6,3.7,1.1c1.2,0.5,2.3,1.1,3.5,1.8c1.2,0.7,2.4,1.6,3.8,2.6
				c2.1,1.1,2.5,2.8,1.2,5.1l-4.2,7.1c-0.6,0.9-1.4,1.5-2.3,1.7c-0.9,0.2-1.9,0.1-2.9-0.4c-1.3-1.3-2.7-2.2-4-2.9
				c-1.4-0.6-2.9-0.9-4.7-0.9c-1.2,0-2.2,0.2-3.2,0.5s-1.7,0.8-2.5,1.4c-0.7,0.6-1.4,1.4-2.1,2.2c-0.6,0.9-1.3,1.8-1.9,2.9v33.3
				c0,1.2-0.3,2.1-0.9,2.6c-0.6,0.6-1.5,0.9-2.8,0.9h-10.4c-2.4,0-3.6-1.2-3.6-3.5V28.7z"/>
			<path class="st21" d="M457.3,76.7c-0.8,0.8-1.7,1.7-2.7,2.7c-1,1-2.1,1.8-3.3,2.7c-1.2,0.8-2.5,1.5-3.9,2
				c-1.4,0.5-2.9,0.8-4.5,0.8c-4.2,0-8-0.8-11.5-2.3c-3.5-1.6-6.5-3.7-9.1-6.4s-4.5-5.9-5.9-9.6c-1.4-3.7-2.1-7.6-2.1-11.9
				c0-4.3,0.7-8.2,2.1-11.9c1.4-3.7,3.4-6.9,5.9-9.6c2.5-2.7,5.6-4.9,9.1-6.4c3.5-1.6,7.4-2.3,11.5-2.3c1.7,0,3.2,0.2,4.6,0.7
				c1.4,0.5,2.7,1.1,3.8,1.9c1.2,0.8,2.2,1.6,3.2,2.6c1,1,1.9,1.9,2.7,2.8v-21c0-1,0.3-1.8,0.9-2.5c0.6-0.7,1.5-1,2.7-1h10.4
				c0.4,0,0.8,0.1,1.3,0.3c0.4,0.2,0.9,0.4,1.2,0.7c0.4,0.3,0.7,0.7,0.9,1.1c0.2,0.4,0.3,0.9,0.3,1.4v68.9c0,2.4-1.2,3.5-3.7,3.5h-9
				c-0.6,0-1.1-0.1-1.4-0.2s-0.6-0.4-0.9-0.7c-0.2-0.3-0.4-0.7-0.6-1.1c-0.2-0.4-0.4-1-0.7-1.5L457.3,76.7z M430.8,54.6
				c0,2,0.3,3.9,0.9,5.7c0.6,1.8,1.5,3.3,2.7,4.6c1.2,1.3,2.6,2.3,4.2,3.1s3.5,1.1,5.5,1.1c2,0,3.8-0.4,5.5-1.1
				c1.7-0.7,3.2-1.7,4.5-2.9c1.3-1.2,2.3-2.7,3.1-4.4c0.8-1.7,1.2-3.5,1.3-5.4v-0.6c0-2-0.4-3.8-1.1-5.6s-1.8-3.4-3.1-4.7
				c-1.3-1.4-2.8-2.4-4.6-3.2c-1.8-0.8-3.7-1.2-5.7-1.2c-2,0-3.8,0.4-5.5,1.2c-1.6,0.8-3,1.9-4.2,3.2c-1.2,1.4-2.1,2.9-2.7,4.7
				C431.2,50.8,430.8,52.6,430.8,54.6z"/>
		</g>
	</g>
</g>
<g id="Wireframe">
</g>
<g id="Palette">
</g>
<g id="Header_x2F_Footer">
</g>
<g id="Layer_17">
</g>
<g id="Grid">
</g>
<g id="Modale">
</g>
<g id="Bootstrap_Grid" class="st13">
</g>
<g id="Our_Grid" class="st13">
</g>
<g id="Layer_20" class="st13">
</g>
<g id="Layer_22" class="st13">
</g>
<g id="linee_guida" class="st13">
</g>
</svg>
