<?xml version="1.0" encoding="utf-8"?>
<!-- Generator: Adobe Illustrator 21.1.0, SVG Export Plug-In . SVG Version: 6.00 Build 0)  -->
<svg version="1.1" xmlns="http://www.w3.org/2000/svg" xmlns:xlink="http://www.w3.org/1999/xlink" x="0px" y="0px"
	 viewBox="0 0 119.4 115.3" style="enable-background:new 0 0 119.4 115.3;" xml:space="preserve">
<style type="text/css">
	.st0{fill:#FFFFFF;}
	.st1{fill:none;stroke:#CFD1D2;stroke-width:3;stroke-linecap:round;stroke-linejoin:round;stroke-miterlimit:10;}
	.st2{fill:#FFFFFF;stroke:#CFD1D2;stroke-width:3;stroke-miterlimit:10;}
	.st3{fill:#F0F0F1;stroke:#DADADA;stroke-width:1.5;stroke-miterlimit:10;}
	.st4{fill:#F39322;}
	.st5{fill:#E3E4E3;stroke:#DADADA;stroke-width:2;stroke-miterlimit:10;}
	.st6{fill:#4E4D4D;}
	.st7{fill:#FFFFFF;stroke:#CCCBCB;stroke-miterlimit:10;}
	.st8{fill:#B3B3B2;}
	.st9{fill:#0971B7;}
	.st10{fill:#F8AE15;}
	.st11{fill:#676767;}
	.st12{fill:#F1F2F4;}
	.st13{fill:none;stroke:#A55299;stroke-miterlimit:10;}
	.st14{fill:none;stroke:#A55299;stroke-miterlimit:10;stroke-dasharray:12.2258,12.2258;}
	.st15{fill:none;stroke:#D0D2D3;stroke-width:3;stroke-linecap:round;stroke-linejoin:round;stroke-miterlimit:10;}
	.st16{fill:#FFFFFF;stroke:#D0D2D3;stroke-width:3;stroke-miterlimit:10;}
	.st17{fill:#F1F1F2;stroke:#DBDBDB;stroke-width:1.5;stroke-miterlimit:10;}
	.st18{fill:#F7941E;}
	.st19{fill:#E5E5E5;stroke:#DBDBDB;stroke-width:2;stroke-miterlimit:10;}
	.st20{fill:#D8DBDF;}
	.st21{fill:#BFC2C4;}
	.st22{fill:#FFFFFF;stroke:#FFFFFF;stroke-miterlimit:10;}
	.st23{fill:none;stroke:#000000;stroke-width:2;stroke-miterlimit:10;}
	.st24{fill:#4D4D4D;}
	.st25{fill:#666666;}
	.st26{fill:#FFFFFF;stroke:#CCCCCC;stroke-miterlimit:10;}
	.st27{fill:#808080;}
	.st28{fill:#B3B3B3;}
	.st29{fill:#FFB000;}
	.st30{fill:#F2F3F5;}
	.st31{fill:none;stroke:#FF00FF;stroke-miterlimit:10;}
	.st32{fill:none;stroke:#FF00FF;stroke-miterlimit:10;stroke-dasharray:12.2258,12.2258;}
	.st33{opacity:0.2;fill:#28348A;}
	.st34{fill:#FFFFFF;stroke:#C1272D;stroke-miterlimit:10;}
	.st35{fill:#C1272D;}
	.st36{fill:#009245;}
	.st37{fill:#999999;}
	.st38{fill:none;stroke:#E6E6E6;stroke-width:0.5;stroke-miterlimit:10;}
	.st39{fill-rule:evenodd;clip-rule:evenodd;fill:#FFFFFF;}
	.st40{opacity:0.5;}
	.st41{fill:#282725;}
	.st42{opacity:0.3;}
	.st43{fill:none;stroke:#FF00FF;stroke-miterlimit:10;stroke-dasharray:11.927,11.927;}
	.st44{opacity:0.1;}
	.st45{opacity:0.2;fill:#F8AE15;}
	.st46{opacity:0.3;fill:#1D70B7;}
	.st47{opacity:0.3;fill:#662482;}
	.st48{opacity:0.3;fill:#DDDB00;}
	.st49{opacity:0.3;fill:#009540;}
	.st50{fill:none;stroke:#4E4D4D;stroke-miterlimit:10;}
	.st51{fill:none;stroke:#4E4D4D;stroke-miterlimit:10;stroke-dasharray:7.467,7.467;}
	.st52{fill:none;stroke:#4E4D4D;stroke-miterlimit:10;stroke-dasharray:10.1756,10.1756;}
	.st53{opacity:0.3;fill:#006633;}
	.st54{opacity:0.3;fill:#BD1622;}
</style>
<g id="Layer_1">
	<g>
		<g>
			<g>
				<path class="st0" d="M41.3,110.8c3,0.2,5.9-1.5,6.9-4.4L50,102c0.4-1.2,1.7-1.7,2.9-1.3c2.1,0.7,4.5,1.1,6.8,1.1
					c5.3,0,9.9-1.8,12.2-4.5c0.8-1,2.2-1.9,3.5-1.9l8.8,0c4.8,0,8.3-1.7,9.9-4.7c1.6-3,1-6.8-1.7-10.8L79.3,60.1
					c-0.7-1-1.3-2.9-1.3-4.2l-0.1-14.1c0-1.9-0.5-3.8-1.2-5.6c-0.4-1.2-0.5-3-0.1-4.2l7-18.3c1.3-3.5-0.4-7.4-3.9-8.8
					c-0.6-0.2-1.2-0.3-1.8-0.4c-3-0.3-6,1.6-7,4.3l-5,13.2c-0.5,1.2-0.8,1.8-0.8,1.4v-0.7c0-2.7-2.7-4.7-6-4.7l-3.8,0
					c-3.4,0-6,2.1-6,4.8c0,0,0,0.5,0,1.2c0,0.6-0.9,1.6-2,2.2c-5.8,3.3-9.7,9.2-9.7,15.8l0.1,14.1c0,1.3-0.5,3.2-1.1,4.3
					c-2.3,4.2-7,12.9-9.6,17.6l-0.8,1.5c-2.3,4.2-2.5,8.1-0.7,11.2c1.8,3.1,5.4,4.7,10.2,4.7c0,0,0.5,0,1.1,0c0.6,0,0.7,0.9,0.2,2.1
					l-1.5,4c-1.3,3.5,0.4,7.4,3.9,8.8C40.1,110.6,40.7,110.7,41.3,110.8L41.3,110.8z M54.1,97.6c-1.2-0.4-2-1.1-1.9-1.5
					c0.1-0.4,1.3-0.7,2.5-0.7L67,95.3c1.3,0,1.5,0.7,0.4,1.3c-2,1.1-4.7,1.8-7.7,1.8C57.8,98.4,55.8,98.1,54.1,97.6L54.1,97.6z
					 M91.3,89c-1,1.9-3.5,3-7,3L56,92.1c-1.3,0-1.9-0.9-1.5-2.1l3-8l1.2-3.2l5.3-14l6.3-16.6l2.8-7.4c0.4-1.2,1-1.5,1.2-0.6
					c0.1,0.5,0.2,1.1,0.2,1.6l0.1,15c0,1.3,0.6,3.1,1.3,4.2l13.7,20.4C91.7,84.4,92.3,87.1,91.3,89L91.3,89z M73.9,9.9
					c0.6-1.5,2.1-2.5,3.7-2.3c0.3,0,0.7,0.1,1,0.2c1.9,0.7,2.8,2.8,2.1,4.7l-35.4,92.8c-0.6,1.5-2.2,2.5-3.8,2.3
					c-0.3,0-0.6-0.1-0.9-0.2c-1.9-0.7-2.9-2.8-2.1-4.7L73.9,9.9z M59.1,21.4c1.6,0,2.7,0.8,2.7,1.5c0,0,0,0.2,0,0.5
					c0,0.3-0.9,0.3-2.1,0.2c-0.7-0.1-1.4-0.1-2.1-0.1c-1,0-1.9,0.1-2.9,0.2c-1.2,0.2-2.2,0.1-2.2-0.2v-0.6c0-0.7,1.1-1.5,2.7-1.5
					L59.1,21.4z M28.3,89.1c-1.2-2-0.9-4.9,0.8-8c6.6-12,9.5-17.4,10.8-20c0.6-1.1,0.9-3.1,0.9-4.4l0-14.7c0-8.4,7.5-15.2,16.8-15.3
					c1.3,0,2.6,0.1,3.8,0.4c1.2,0.3,1.8,1.6,1.4,2.7l-6.6,17.3l-1.2,3.1L54.1,53l-1.4,3.4L51,60.7l-1.2,3.2l-1.5,3.9l-1.2,3.4
					l-7.2,19c-0.5,1.2-1.6,2.1-2.5,2.1h-1.7C32.2,92.2,29.6,91.1,28.3,89.1L28.3,89.1z M28.3,89.1"/>
			</g>
		</g>
	</g>
</g>
<g id="guidelines">
</g>
</svg>
