<svg version="1" xmlns="http://www.w3.org/2000/svg" width="3333.333" height="3333.333" viewBox="0 0 2500.000000 2500.000000"><path d="M2004 442.7c-43.6 2.3-70.4 4.8-105.6 9.8-197.9 28.2-388.6 113.4-571.4 255.4-58.9 45.7-104.9 86.7-167.5 149.5-40.6 40.6-64 65.5-96.5 102.6-196.7 224.5-380.8 525.9-530.6 868.2-30.8 70.5-63.6 151.9-88.4 219.9-12.5 33.9-26.1 73.9-25.2 73.9.5 0 41.4-48.5 91.1-107.8l90.2-107.9 4.9 1.3c18.1 4.7 56.6 6.8 112.8 6.1 46.9-.5 65.5-1.7 101.9-6.2 156.7-19.7 294.5-81.1 398.4-177.7 19.5-18.2 51.4-53.6 49.7-55.3-.2-.2-4 .7-8.3 2-73.4 22.7-189.5 11-320.5-32.2l-23.5-7.8 9-.2c139.9-3.4 259.4-36.9 371.5-104.1 79.6-47.7 154.9-115.7 203.8-184.1 4.5-6.3 8-11.6 7.8-11.8-.2-.2-5.6 2.1-11.9 5.1-23.1 11.1-50.9 18.8-80.7 22.2-19.6 2.2-61.7 1.5-83.5-1.5-39.8-5.4-76.7-14.7-118.5-29.8-15.4-5.6-40.8-16.1-48.5-20l-4-2.1 4.5-.6c2.5-.3 14.6-1.7 27-3.1 88.3-10 170.1-31.1 248.4-64.2 23-9.7 66.2-31.4 87.6-43.9 83-48.5 156.4-112.7 208.4-182.1 12-16.1 24-34.2 23.1-35.1-.2-.2-3.2 1.3-6.7 3.5-35.2 22.1-79.5 36.4-132.8 42.9-18.1 2.2-68.9 3-90.3 1.5-38-2.8-76.5-8.6-112.5-17.2-11.5-2.7-28.9-7.3-32.2-8.5-.8-.3 7.1-2.7 17.5-5.4 108.6-27.6 228.1-93.1 357.5-195.8 110.2-87.5 232-207.8 333.4-329.2 19.9-23.8 23.1-27.9 22.3-28.6-1.7-1.7-87-3.1-111.7-1.7z"/></svg>