<?xml version="1.0" encoding="utf-8"?>
<!-- Generator: Adobe Illustrator 21.1.0, SVG Export Plug-In . SVG Version: 6.00 Build 0)  -->
<svg version="1.1" xmlns="http://www.w3.org/2000/svg" xmlns:xlink="http://www.w3.org/1999/xlink" x="0px" y="0px"
	 viewBox="0 0 119.4 115.3" style="enable-background:new 0 0 119.4 115.3;" xml:space="preserve">
<style type="text/css">
	.st0{fill:#FFFFFF;}
	.st1{fill:none;stroke:#CFD1D2;stroke-width:3;stroke-linecap:round;stroke-linejoin:round;stroke-miterlimit:10;}
	.st2{fill:#FFFFFF;stroke:#CFD1D2;stroke-width:3;stroke-miterlimit:10;}
	.st3{fill:#F0F0F1;stroke:#DADADA;stroke-width:1.5;stroke-miterlimit:10;}
	.st4{fill:#F39322;}
	.st5{fill:#E3E4E3;stroke:#DADADA;stroke-width:2;stroke-miterlimit:10;}
	.st6{fill:#4E4D4D;}
	.st7{fill:#FFFFFF;stroke:#CCCBCB;stroke-miterlimit:10;}
	.st8{fill:#B3B3B2;}
	.st9{fill:#0971B7;}
	.st10{fill:#F8AE15;}
	.st11{fill:#676767;}
	.st12{fill:#F1F2F4;}
	.st13{fill:none;stroke:#A55299;stroke-miterlimit:10;}
	.st14{fill:none;stroke:#A55299;stroke-miterlimit:10;stroke-dasharray:12.2258,12.2258;}
	.st15{fill:none;stroke:#D0D2D3;stroke-width:3;stroke-linecap:round;stroke-linejoin:round;stroke-miterlimit:10;}
	.st16{fill:#FFFFFF;stroke:#D0D2D3;stroke-width:3;stroke-miterlimit:10;}
	.st17{fill:#F1F1F2;stroke:#DBDBDB;stroke-width:1.5;stroke-miterlimit:10;}
	.st18{fill:#F7941E;}
	.st19{fill:#E5E5E5;stroke:#DBDBDB;stroke-width:2;stroke-miterlimit:10;}
	.st20{fill:#D8DBDF;}
	.st21{fill:#BFC2C4;}
	.st22{fill:#FFFFFF;stroke:#FFFFFF;stroke-miterlimit:10;}
	.st23{fill:none;stroke:#000000;stroke-width:2;stroke-miterlimit:10;}
	.st24{fill:#4D4D4D;}
	.st25{fill:#666666;}
	.st26{fill:#FFFFFF;stroke:#CCCCCC;stroke-miterlimit:10;}
	.st27{fill:#808080;}
	.st28{fill:#B3B3B3;}
	.st29{fill:#FFB000;}
	.st30{fill:#F2F3F5;}
	.st31{fill:none;stroke:#FF00FF;stroke-miterlimit:10;}
	.st32{fill:none;stroke:#FF00FF;stroke-miterlimit:10;stroke-dasharray:12.2258,12.2258;}
	.st33{opacity:0.2;fill:#28348A;}
	.st34{fill:#FFFFFF;stroke:#C1272D;stroke-miterlimit:10;}
	.st35{fill:#C1272D;}
	.st36{fill:#009245;}
	.st37{fill:#999999;}
	.st38{fill:none;stroke:#E6E6E6;stroke-width:0.5;stroke-miterlimit:10;}
	.st39{fill-rule:evenodd;clip-rule:evenodd;fill:#FFFFFF;}
	.st40{opacity:0.5;}
	.st41{fill:#282725;}
	.st42{opacity:0.3;}
	.st43{fill:none;stroke:#FF00FF;stroke-miterlimit:10;stroke-dasharray:11.927,11.927;}
	.st44{opacity:0.1;}
	.st45{opacity:0.2;fill:#F8AE15;}
	.st46{opacity:0.3;fill:#1D70B7;}
	.st47{opacity:0.3;fill:#662482;}
	.st48{opacity:0.3;fill:#DDDB00;}
	.st49{opacity:0.3;fill:#009540;}
	.st50{fill:none;stroke:#4E4D4D;stroke-miterlimit:10;}
	.st51{fill:none;stroke:#4E4D4D;stroke-miterlimit:10;stroke-dasharray:7.467,7.467;}
	.st52{fill:none;stroke:#4E4D4D;stroke-miterlimit:10;stroke-dasharray:10.1756,10.1756;}
	.st53{opacity:0.3;fill:#006633;}
	.st54{opacity:0.3;fill:#BD1622;}
</style>
<g id="Layer_1">
	<g>
		<g>
			<path class="st0" d="M59.7,113c-12.6,0-22.9-10.3-22.9-22.9S47,67.2,59.7,67.2c12.6,0,22.9,10.3,22.9,22.9S72.3,113,59.7,113
				L59.7,113z M59.7,71c-10.5,0-19.1,8.6-19.1,19.1c0,10.5,8.6,19.1,19.1,19.1c10.5,0,19.1-8.6,19.1-19.1C78.8,79.5,70.2,71,59.7,71
				L59.7,71z M59.7,71"/>
			<g>
				<path class="st0" d="M71.1,92H48.2c-1.1,0-1.9-0.9-1.9-1.9c0-1.1,0.9-1.9,1.9-1.9h22.9c1.1,0,1.9,0.9,1.9,1.9
					C73.1,91.1,72.2,92,71.1,92L71.1,92z M71.1,92"/>
				<path class="st0" d="M93.9,109.2c-0.3,0-0.6-0.1-0.9-0.2L77.6,101c-0.9-0.5-1.3-1.6-0.8-2.5c1.3-2.7,2-5.5,2-8.4
					c0-10.5-8.6-19.1-19.1-19.1c-10.5,0-19.1,8.6-19.1,19.1c0,2.9,0.7,5.8,2,8.4c0.5,0.9,0.1,2.1-0.8,2.5L26.3,109
					c-0.6,0.3-1.4,0.3-2-0.2c-0.6-0.4-0.9-1.2-0.7-1.9l6.4-36.3L3,44.9c-0.5-0.5-0.7-1.3-0.5-2c0.2-0.7,0.8-1.2,1.5-1.3l37.3-5.3
					L58,3.3c0.7-1.3,2.8-1.3,3.4,0l16.7,33.1l37.3,5.3c0.7,0.1,1.3,0.6,1.5,1.3c0.2,0.7,0,1.5-0.5,2l-27,25.7l6.4,36.3
					c0.1,0.7-0.2,1.4-0.8,1.9C94.7,109.1,94.3,109.2,93.9,109.2L93.9,109.2z M81,98.5l10.4,5.3l-5.9-33.5c-0.1-0.6,0.1-1.3,0.6-1.7
					l24.9-23.7L76.5,40c-0.6-0.1-1.2-0.5-1.4-1L59.7,8.4L44.3,38.9c-0.3,0.6-0.8,0.9-1.4,1L8.4,44.9l24.8,23.7
					c0.5,0.4,0.7,1.1,0.6,1.7L28,103.8l10.4-5.3c-1.1-2.7-1.6-5.5-1.6-8.4c0-12.6,10.3-22.9,22.9-22.9c12.6,0,22.9,10.3,22.9,22.9
					C82.6,93,82.1,95.8,81,98.5L81,98.5z M81,98.5"/>
			</g>
		</g>
	</g>
</g>
<g id="guidelines">
</g>
</svg>
