<?xml version="1.0" encoding="utf-8"?>
<!-- Generator: Adobe Illustrator 21.1.0, SVG Export Plug-In . SVG Version: 6.00 Build 0)  -->
<svg version="1.1" id="Layer_1" xmlns="http://www.w3.org/2000/svg" xmlns:xlink="http://www.w3.org/1999/xlink" x="0px" y="0px"
	 viewBox="0 0 119.4 115.3" style="enable-background:new 0 0 119.4 115.3;" xml:space="preserve">
<style type="text/css">
	.st0{fill:#FFFFFF;}
</style>
<g id="Layer_1_1_">
	<g>
		<g>
			<path class="st0" d="M59.7,113c-12.6,0-22.9-10.3-22.9-22.9S47,67.2,59.7,67.2c12.6,0,22.9,10.3,22.9,22.9S72.3,113,59.7,113
				L59.7,113z M59.7,71c-10.5,0-19.1,8.6-19.1,19.1s8.6,19.1,19.1,19.1s19.1-8.6,19.1-19.1C78.8,79.5,70.2,71,59.7,71L59.7,71z"/>
			<g>
				<path class="st0" d="M71.1,92H48.2c-1.1,0-1.9-0.9-1.9-1.9c0-1.1,0.9-1.9,1.9-1.9h22.9c1.1,0,1.9,0.9,1.9,1.9
					C73.1,91.1,72.2,92,71.1,92L71.1,92z"/>
				<path class="st0" d="M93.9,109.2c-0.3,0-0.6-0.1-0.9-0.2l-15.4-8c-0.9-0.5-1.3-1.6-0.8-2.5c1.3-2.7,2-5.5,2-8.4
					c0-10.5-8.6-19.1-19.1-19.1s-19.1,8.6-19.1,19.1c0,2.9,0.7,5.8,2,8.4c0.5,0.9,0.1,2.1-0.8,2.5l-15.5,8c-0.6,0.3-1.4,0.3-2-0.2
					c-0.6-0.4-0.9-1.2-0.7-1.9L30,70.6L3,44.9c-0.5-0.5-0.7-1.3-0.5-2s0.8-1.2,1.5-1.3l37.3-5.3L58,3.3c0.7-1.3,2.8-1.3,3.4,0
					l16.7,33.1l37.3,5.3c0.7,0.1,1.3,0.6,1.5,1.3s0,1.5-0.5,2l-27,25.7l6.4,36.3c0.1,0.7-0.2,1.4-0.8,1.9
					C94.7,109.1,94.3,109.2,93.9,109.2L93.9,109.2z M81,98.5l10.4,5.3l-5.9-33.5c-0.1-0.6,0.1-1.3,0.6-1.7L111,44.9L76.5,40
					c-0.6-0.1-1.2-0.5-1.4-1L59.7,8.4L44.3,38.9c-0.3,0.6-0.8,0.9-1.4,1l-34.5,5l24.8,23.7c0.5,0.4,0.7,1.1,0.6,1.7L28,103.8
					l10.4-5.3c-1.1-2.7-1.6-5.5-1.6-8.4c0-12.6,10.3-22.9,22.9-22.9s22.9,10.3,22.9,22.9C82.6,93,82.1,95.8,81,98.5L81,98.5z"/>
				<path class="st0" d="M57.8,101.5V78.6c0-1.1,0.9-1.9,1.9-1.9c1.1,0,1.9,0.9,1.9,1.9v22.9c0,1.1-0.9,1.9-1.9,1.9
					C58.7,103.5,57.8,102.6,57.8,101.5L57.8,101.5z"/>
			</g>
		</g>
	</g>
</g>
<g id="guidelines">
</g>
</svg>
