<?xml version="1.0" encoding="utf-8"?>
<!-- Generator: Adobe Illustrator 21.1.0, SVG Export Plug-In . SVG Version: 6.00 Build 0)  -->
<svg version="1.1" xmlns="http://www.w3.org/2000/svg" xmlns:xlink="http://www.w3.org/1999/xlink" x="0px" y="0px"
	 viewBox="0 0 375 667" style="enable-background:new 0 0 375 667;" xml:space="preserve">
<style type="text/css">
	.st0{fill:#FFFFFF;}
	.st1{fill:none;stroke:#D0D2D3;stroke-width:3;stroke-linecap:round;stroke-linejoin:round;stroke-miterlimit:10;}
	.st2{fill:#FFFFFF;stroke:#D0D2D3;stroke-width:3;stroke-miterlimit:10;}
	.st3{fill:#F1F1F2;stroke:#DBDBDB;stroke-width:1.5;stroke-miterlimit:10;}
	.st4{fill:#F7941E;}
	.st5{fill:#E5E5E5;stroke:#DBDBDB;stroke-width:2;stroke-miterlimit:10;}
	.st6{opacity:3.000000e-02;fill:url(#);}
	.st7{fill:#999999;}
	.st8{fill:#FFB000;}
	.st9{opacity:0.5;}
	.st10{fill:#282725;}
	.st11{fill-rule:evenodd;clip-rule:evenodd;fill:#FFFFFF;}
	.st12{opacity:0.3;}
	.st13{display:none;}
	.st14{display:inline;}
	.st15{fill:#606060;}
	.st16{display:inline;opacity:0.7;fill:#22B573;}
	.st17{display:inline;opacity:0.5;fill:#E6E6E6;}
	.st18{fill:none;stroke:#FF00FF;stroke-miterlimit:10;}
	.st19{fill:none;stroke:#FF00FF;stroke-miterlimit:10;stroke-dasharray:11.7009,11.7009;}
	.st20{fill:#666666;}
	.st21{fill:#272727;}
	.st22{clip-path:url(#SVGID_20_);}
	.st23{fill:url(#w45va_2_);}
	.st24{clip-path:url(#SVGID_22_);}
	.st25{fill:#0161CD;}
	.st26{fill:url(#w45vf_2_);}
	.st27{fill:#2C8CF4;}
	.st28{fill:#0353A7;}
	.st29{fill:none;stroke:#000000;stroke-miterlimit:10;}
	.st30{fill:none;stroke:#000000;stroke-miterlimit:10;stroke-dasharray:12.2258,12.2258;}
	.st31{fill:none;}
	.st32{fill:none;stroke:#000000;stroke-miterlimit:10;stroke-dasharray:11.973,11.973;}
	.st33{clip-path:url(#SVGID_24_);}
	.st34{clip-path:url(#SVGID_26_);}
	.st35{fill-rule:evenodd;clip-rule:evenodd;fill:#050008;}
	.st36{clip-path:url(#SVGID_28_);}
	.st37{opacity:0.5;fill:none;stroke:#000000;stroke-miterlimit:10;}
	.st38{opacity:0.3;fill:none;stroke:#000000;stroke-miterlimit:10;}
	.st39{fill:#070606;}
	.st40{fill:#FFFFFF;stroke:#CCCCCC;stroke-miterlimit:10;}
	.st41{fill:#CCCCCC;}
	.st42{fill:#4D4D4D;}
	.st43{fill:#B3B3B3;}
	.st44{fill:none;stroke:#B3B3B3;stroke-miterlimit:10;}
	.st45{fill:#00FF00;}
	.st46{fill:#D8DBDF;}
	.st47{fill:#BFC2C4;}
	.st48{fill:#FFFFFF;stroke:#FFFFFF;stroke-miterlimit:10;}
	.st49{fill:none;stroke:#000000;stroke-width:2;stroke-miterlimit:10;}
	.st50{fill:#808080;}
	.st51{fill:#0071BC;}
	.st52{clip-path:url(#SVGID_30_);}
	.st53{clip-path:url(#SVGID_32_);}
	.st54{clip-path:url(#SVGID_34_);}
	.st55{opacity:0.2;fill:#29ABE2;}
	.st56{fill:#FF7BAC;}
	.st57{clip-path:url(#SVGID_36_);}
	.st58{fill:none;stroke:#FF00FF;stroke-miterlimit:10;stroke-dasharray:11.927,11.927;}
	.st59{fill:#F4F4F4;}
	.st60{fill:#494949;}
	.st61{opacity:0.6;}
	.st62{fill:#FFFFFF;stroke:#B3B3B3;stroke-miterlimit:10;}
	.st63{fill:#0076FF;}
	.st64{fill:none;stroke:#D8DBDF;stroke-miterlimit:10;}
	.st65{fill:none;stroke:#BFC2C4;stroke-miterlimit:10;}
	.st66{opacity:0.2;fill:#FFFFFF;}
	.st67{opacity:0.5;fill:#FFFFFF;}
	.st68{fill:#FFFFFF;stroke:#C1272D;stroke-miterlimit:10;}
	.st69{fill:#C1272D;}
	.st70{fill:#FFFFFF;stroke:#009245;stroke-miterlimit:10;}
	.st71{fill:#009245;}
	.st72{fill:#F2F3F5;}
	.st73{fill:#E9E9E9;}
	.st74{fill:#FFFFFF;stroke:#E6E6E6;stroke-width:0.5;stroke-miterlimit:10;}
	.st75{fill:none;stroke:#FF7BAC;stroke-miterlimit:10;}
	.st76{fill:none;stroke:#0071BC;stroke-miterlimit:10;}
	.st77{fill:none;stroke:#C1272D;stroke-miterlimit:10;}
	.st78{fill:none;stroke:#009245;stroke-miterlimit:10;}
	.st79{clip-path:url(#SVGID_112_);}
	.st80{clip-path:url(#SVGID_116_);}
	.st81{fill:url(#w45va_3_);}
	.st82{clip-path:url(#SVGID_118_);}
	.st83{fill:#FFA300;}
	.st84{fill:url(#w45vf_3_);}
	.st85{fill:#F4972C;}
	.st86{fill:url(#w45vi_2_);}
	.st87{opacity:0.6;fill:#FFFFFF;}
	.st88{fill:none;stroke:#FF00FF;stroke-miterlimit:10;stroke-dasharray:12.2258,12.2258;}
	.st89{opacity:0.3;fill:#FF7BAC;}
	.st90{display:inline;opacity:0.4;fill:#FF3500;}
	.st91{display:inline;opacity:0.5;fill:#FF3500;}
	.st92{opacity:0.3;fill:#FF3500;}
	.st93{fill:#FF3500;}
	.st94{display:inline;opacity:0.5;fill:#0071BC;}
	.st95{display:inline;opacity:0.5;fill:#FFB000;}
	.st96{display:inline;opacity:0.5;fill:#ED1C24;}
	.st97{display:inline;opacity:0.5;fill:#D9E021;}
</style>
<g id="iPhone">
</g>
<g id="bg_grey">
</g>
<g id="Chats">
</g>
<g id="Chat_Actions">
</g>
<g id="Bg_Header">
</g>
<g id="Search_Icon">
</g>
<g id="Tabs_Menu">
</g>
<g id="Logo">
</g>
<g id="Profile_Icon">
</g>
<g id="guidances" class="st13">
	<rect x="240.3" y="160" class="st16" width="9" height="9"/>
	<rect x="240.3" y="240.2" class="st16" width="9" height="9"/>
	<rect x="240.3" y="320.3" class="st16" width="9" height="9"/>
	<rect x="240.3" y="400.5" class="st16" width="9" height="9"/>
	<rect x="240.3" y="480.7" class="st16" width="9" height="9"/>
	<rect x="240.3" y="560.4" class="st16" width="9" height="9"/>
	<rect x="240.3" y="641.5" class="st16" width="9" height="9"/>
</g>
<g id="Prove_Logo">
</g>
<g id="screen_borders">
</g>
<g id="Wireframe">
</g>
<g id="Palette">
</g>
<g id="Header_x2F_Footer">
	<g>
		<defs>
			<rect id="SVGID_115_" x="-62.8" y="-20.2" width="500.5" height="707.3"/>
		</defs>
		<clipPath id="SVGID_2_">
			<use xlink:href="#SVGID_115_"  style="overflow:visible;"/>
		</clipPath>
		<g style="clip-path:url(#SVGID_2_);">
			<g>
				<g>
					<g>
						<g>
							
								<linearGradient id="w45va_2_" gradientUnits="userSpaceOnUse" x1="1126.6221" y1="5675.7144" x2="-461.2599" y2="5651.6401" gradientTransform="matrix(0 -1 -1 0 5847.9673 1205.4963)">
								<stop  offset="0" style="stop-color:#FFA300"/>
								<stop  offset="1" style="stop-color:#FFBB00"/>
							</linearGradient>
							<path id="w45va_1_" class="st23" d="M437.2,2160.4H-63.3V-60.4h500.5V2160.4z"/>
						</g>
					</g>
					<g>
						<defs>
							<rect id="SVGID_117_" x="-63.3" y="-60.4" width="500.5" height="2220.8"/>
						</defs>
						<clipPath id="SVGID_4_">
							<use xlink:href="#SVGID_117_"  style="overflow:visible;"/>
						</clipPath>
						<g style="clip-path:url(#SVGID_4_);">
							<g>
								<g>
									<path id="w45vd_1_" class="st83" d="M135.5,673.2c-71.5-154.6,89.1-278.3-32-334.8c-121.1-56.5,10.7-326.9,260.6-237
										c249.9,89.9-132.4,276.3,98.2,299.4c230.7,23.2,84.7,248-11.7,323.5C354.2,799.8,207,827.8,135.5,673.2L135.5,673.2z"/>
								</g>
							</g>
							<g>
								<g>
									
										<linearGradient id="w45vf_2_" gradientUnits="userSpaceOnUse" x1="1127.5156" y1="5397.2549" x2="772.6437" y2="5558.1934" gradientTransform="matrix(0 -1 -1 0 5847.9673 1205.4963)">
										<stop  offset="0" style="stop-color:#FF9700"/>
										<stop  offset="1" style="stop-color:#F4972C"/>
									</linearGradient>
									<path id="w45vf_1_" class="st26" d="M187.2,94.9c23.7,38.9,126.5,10.2,136.4,44.2c6,20.4-29,37.5-51.9,68
										c-9,12-16.1,25.9-18.2,43c-0.4,3.4-0.6,6.8-0.6,10.1c0.1,10,1.8,20,5.1,29.5c13.9,41.2,51.6,72.3,59,78.4
										c3.4,2.8,8,6.6,13.6,10.8c7.7,5.8,15.8,11.1,24.2,15.8c15.3,8.5,33.4,15.3,52.1,15.4h0.4c7.4,0,14.9-1.1,22.4-3.6
										c18.9-6.4,33.9-20.5,45.1-38.3c6.2-9.9,11.1-20.8,14.9-32.2c6.9-20.7,10.2-43,8.6-64.8c-4-52.1-36.5-68.5-29.2-119.8
										c4.4-30.7,22.4-69.5,46.3-72.4c27.3-3.3,36.5,43.4,84.9,60.7c30.2,10.8,65.9,6.6,89.6-6.9c63-35.9,74.8-157.4,30.1-234.3
										c-44.4-76.3-135.8-93.5-194.8-96.1c-14.2-0.6-26.5-0.4-35.8,0c-6.2,0.3-12.4,0.7-18.5,1.4c-47.2,6.1-90.9,24-129.3,48.3
										c-97.1,61.6-160,164.2-160,219.4C181.6,80.7,183.4,88.7,187.2,94.9"/>
								</g>
							</g>
							<g>
								<g>
									<path id="w45vh_1_" class="st85" d="M305.2,548.8c15.7,12,35.3,9.2,41.3,8.3c6.3-0.9,37-6.2,46.5-31.2
										c9-23.6-5.9-51.6-28-63.8c-20.2-11.1-49.5-10.7-67.1,8C276,493.3,283.6,532.4,305.2,548.8"/>
								</g>
							</g>
							<g>
								<g>
									<linearGradient id="w45vi_2_" gradientUnits="userSpaceOnUse" x1="-314.1688" y1="170.808" x2="294.874" y2="170.808">
										<stop  offset="0" style="stop-color:#FFA300"/>
										<stop  offset="1" style="stop-color:#FFBB00"/>
									</linearGradient>
									<path id="w45vi_1_" class="st86" d="M-296.4,224.7c64.1-157.8,264-124.5,222.7-251.8S172.3-242.2,277,2.1
										C381.8,246.4-15,93.5,125.4,278.3C265.8,463,2,509.5-118.8,490.3C-239.7,471.1-360.5,382.4-296.4,224.7L-296.4,224.7z"/>
								</g>
							</g>
						</g>
					</g>
				</g>
			</g>
			<rect x="281.4" y="439.5" class="st83" width="124.9" height="145.1"/>
		</g>
	</g>
	<path class="st31" d="M503.9,73.8h-632.8c-4.4,0-8-3.6-8-8V5.4c0-4.4,3.6-8,8-8h632.8c4.4,0,8,3.6,8,8v60.3
		C511.8,70.2,508.3,73.8,503.9,73.8z"/>
</g>
<g id="Layer_17">
</g>
<g id="Grid">
</g>
<g id="Modale">
</g>
<g id="Bootstrap_Grid" class="st13">
</g>
<g id="Our_Grid" class="st13">
</g>
<g id="Layer_20" class="st13">
</g>
<g id="Layer_22" class="st13">
</g>
<g id="linee_guida" class="st13">
</g>
</svg>
