<?xml version="1.0" encoding="utf-8"?>
<!-- Generator: Adobe Illustrator 21.1.0, SVG Export Plug-In . SVG Version: 6.00 Build 0)  -->
<svg version="1.1" xmlns="http://www.w3.org/2000/svg" xmlns:xlink="http://www.w3.org/1999/xlink" x="0px" y="0px"
	 viewBox="0 0 355 71.2" style="enable-background:new 0 0 355 71.2;" xml:space="preserve">
<style type="text/css">
	.st0{fill:#FFFFFF;}
	.st1{fill:none;stroke:#D0D2D3;stroke-width:3;stroke-linecap:round;stroke-linejoin:round;stroke-miterlimit:10;}
	.st2{fill:#FFFFFF;stroke:#D0D2D3;stroke-width:3;stroke-miterlimit:10;}
	.st3{fill:#F1F1F2;stroke:#DBDBDB;stroke-width:1.5;stroke-miterlimit:10;}
	.st4{fill:#F7941E;}
	.st5{fill:#E5E5E5;stroke:#DBDBDB;stroke-width:2;stroke-miterlimit:10;}
	.st6{opacity:3.000000e-02;fill:url(#);}
	.st7{fill:#999999;}
	.st8{fill:#FFB000;}
	.st9{opacity:0.5;}
	.st10{fill:#282725;}
	.st11{fill-rule:evenodd;clip-rule:evenodd;fill:#FFFFFF;}
	.st12{opacity:0.3;}
	.st13{display:none;}
	.st14{display:inline;}
	.st15{fill:#606060;}
	.st16{display:inline;opacity:0.7;fill:#22B573;}
	.st17{display:inline;opacity:0.5;fill:#E6E6E6;}
	.st18{fill:none;stroke:#FF00FF;stroke-miterlimit:10;}
	.st19{fill:none;stroke:#FF00FF;stroke-miterlimit:10;stroke-dasharray:11.7009,11.7009;}
	.st20{fill:#666666;}
	.st21{fill:#272727;}
	.st22{clip-path:url(#SVGID_20_);}
	.st23{fill:url(#w45va_3_);}
	.st24{clip-path:url(#SVGID_22_);}
	.st25{fill:#0161CD;}
	.st26{fill:url(#w45vf_3_);}
	.st27{fill:#2C8CF4;}
	.st28{fill:#0353A7;}
	.st29{fill:none;stroke:#000000;stroke-miterlimit:10;}
	.st30{fill:none;stroke:#000000;stroke-miterlimit:10;stroke-dasharray:12.2258,12.2258;}
	.st31{fill:none;}
	.st32{fill:none;stroke:#000000;stroke-miterlimit:10;stroke-dasharray:11.973,11.973;}
	.st33{clip-path:url(#SVGID_24_);}
	.st34{fill-rule:evenodd;clip-rule:evenodd;fill:#050008;}
	.st35{clip-path:url(#SVGID_26_);}
	.st36{opacity:0.5;fill:none;stroke:#000000;stroke-miterlimit:10;}
	.st37{opacity:0.3;fill:none;stroke:#000000;stroke-miterlimit:10;}
	.st38{fill:#070606;}
	.st39{fill:#FFFFFF;stroke:#CCCCCC;stroke-miterlimit:10;}
	.st40{fill:#CCCCCC;}
	.st41{fill:#4D4D4D;}
	.st42{fill:#B3B3B3;}
	.st43{fill:none;stroke:#B3B3B3;stroke-miterlimit:10;}
	.st44{fill:#00FF00;}
	.st45{fill:#D8DBDF;}
	.st46{fill:#BFC2C4;}
	.st47{fill:#FFFFFF;stroke:#FFFFFF;stroke-miterlimit:10;}
	.st48{fill:none;stroke:#000000;stroke-width:2;stroke-miterlimit:10;}
	.st49{fill:#808080;}
	.st50{fill:#0071BC;}
	.st51{clip-path:url(#SVGID_28_);}
	.st52{clip-path:url(#SVGID_30_);}
	.st53{opacity:0.2;fill:#29ABE2;}
	.st54{fill:#FF7BAC;}
	.st55{clip-path:url(#SVGID_32_);}
	.st56{fill:none;stroke:#FF00FF;stroke-miterlimit:10;stroke-dasharray:11.927,11.927;}
	.st57{fill:#F4F4F4;}
	.st58{fill:#494949;}
	.st59{opacity:0.6;}
	.st60{fill:#FFFFFF;stroke:#B3B3B3;stroke-miterlimit:10;}
	.st61{fill:#0076FF;}
	.st62{fill:none;stroke:#D8DBDF;stroke-miterlimit:10;}
	.st63{fill:none;stroke:#BFC2C4;stroke-miterlimit:10;}
	.st64{opacity:0.2;fill:#FFFFFF;}
	.st65{opacity:0.5;fill:#FFFFFF;}
	.st66{fill:#FFFFFF;stroke:#C1272D;stroke-miterlimit:10;}
	.st67{fill:#C1272D;}
	.st68{fill:#FFFFFF;stroke:#009245;stroke-miterlimit:10;}
	.st69{fill:#009245;}
	.st70{fill:#F2F3F5;}
	.st71{fill:#E9E9E9;}
	.st72{fill:#FFFFFF;stroke:#E6E6E6;stroke-width:0.5;stroke-miterlimit:10;}
	.st73{fill:none;stroke:#FF7BAC;stroke-miterlimit:10;}
	.st74{fill:none;stroke:#0071BC;stroke-miterlimit:10;}
	.st75{fill:none;stroke:#C1272D;stroke-miterlimit:10;}
	.st76{fill:none;stroke:#009245;stroke-miterlimit:10;}
	.st77{clip-path:url(#SVGID_108_);}
	.st78{clip-path:url(#SVGID_112_);}
	.st79{fill:url(#w45va_4_);}
	.st80{clip-path:url(#SVGID_114_);}
	.st81{fill:#FFA300;}
	.st82{fill:url(#w45vf_4_);}
	.st83{fill:#F4972C;}
	.st84{fill:url(#w45vi_3_);}
	.st85{clip-path:url(#SVGID_116_);}
	.st86{clip-path:url(#SVGID_118_);}
	.st87{fill:url(#w45va_5_);}
	.st88{clip-path:url(#SVGID_120_);}
	.st89{fill:url(#w45vf_5_);}
	.st90{fill:url(#w45vi_4_);}
	.st91{opacity:0.6;fill:#FFFFFF;}
	.st92{fill:none;stroke:#FF00FF;stroke-miterlimit:10;stroke-dasharray:12.2258,12.2258;}
	.st93{opacity:0.3;fill:#FF7BAC;}
	.st94{display:inline;opacity:0.4;fill:#FF3500;}
	.st95{display:inline;opacity:0.5;fill:#FF3500;}
	.st96{opacity:0.3;fill:#FF3500;}
	.st97{fill:#FF3500;}
	.st98{display:inline;opacity:0.5;fill:#0071BC;}
	.st99{display:inline;opacity:0.5;fill:#FFB000;}
	.st100{display:inline;opacity:0.5;fill:#ED1C24;}
	.st101{display:inline;opacity:0.5;fill:#D9E021;}
</style>
<g id="iPhone">
</g>
<g id="bg_grey">
</g>
<g id="Chats">
</g>
<g id="Chat_Actions">
</g>
<g id="Bg_Header">
</g>
<g id="Search_Icon">
</g>
<g id="Tabs_Menu">
</g>
<g id="Logo">
</g>
<g id="Profile_Icon">
</g>
<g id="guidances" class="st13">
</g>
<g id="Prove_Logo">
</g>
<g id="screen_borders">
</g>
<g id="Wireframe">
</g>
<g id="Palette">
</g>
<g id="Header_x2F_Footer">
	<path class="st31" d="M493.9,58.3h-632.8c-4.4,0-8-3.6-8-8V-10c0-4.4,3.6-8,8-8h632.8c4.4,0,8,3.6,8,8v60.3
		C501.9,54.7,498.3,58.3,493.9,58.3z"/>
	<g>
		<defs>
			<rect id="SVGID_115_" x="-11.6" y="-2.3" width="378.3" height="75.9"/>
		</defs>
		<clipPath id="SVGID_2_">
			<use xlink:href="#SVGID_115_"  style="overflow:visible;"/>
		</clipPath>
		<g style="clip-path:url(#SVGID_2_);">
			<defs>
				<rect id="SVGID_117_" x="-89.2" y="-160.3" width="533.3" height="753.7"/>
			</defs>
			<clipPath id="SVGID_4_">
				<use xlink:href="#SVGID_117_"  style="overflow:visible;"/>
			</clipPath>
			<g style="clip-path:url(#SVGID_4_);">
				<g>
					<g>
						<g>
							<g>
								
									<linearGradient id="w45va_3_" gradientUnits="userSpaceOnUse" x1="2290.8638" y1="6697.2964" x2="598.9751" y2="6671.6455" gradientTransform="matrix(0 -1 -1 0 6858.5796 2216.1084)">
									<stop  offset="0" style="stop-color:#FFA300"/>
									<stop  offset="1" style="stop-color:#FFBB00"/>
								</linearGradient>
								<path id="w45va_2_" class="st23" d="M443.6,2143.1H-89.7V-223.1h533.3V2143.1z"/>
							</g>
						</g>
						<g>
							<defs>
								<rect id="SVGID_119_" x="-89.7" y="-223.1" width="533.3" height="2366.3"/>
							</defs>
							<clipPath id="SVGID_6_">
								<use xlink:href="#SVGID_119_"  style="overflow:visible;"/>
							</clipPath>
							<g style="clip-path:url(#SVGID_6_);">
								<g>
									<g>
										<path id="w45vd_2_" class="st81" d="M122.1,558.5C45.9,393.8,217,262,88,201.8C-41,141.6,99.4-146.5,365.6-50.7
											c266.2,95.8-141.1,294.4,104.6,319C716,293,560.6,532.6,457.8,613C355.1,693.4,198.3,723.2,122.1,558.5L122.1,558.5z"/>
									</g>
								</g>
								<g>
									<g>
										
											<linearGradient id="w45vf_3_" gradientUnits="userSpaceOnUse" x1="2291.8159" y1="6400.5981" x2="1913.6997" y2="6572.0776" gradientTransform="matrix(0 -1 -1 0 6858.5796 2216.1084)">
											<stop  offset="0" style="stop-color:#FF9700"/>
											<stop  offset="1" style="stop-color:#F4972C"/>
										</linearGradient>
										<path id="w45vf_2_" class="st26" d="M177.2-57.7C202.4-16.3,312-46.8,322.6-10.6c6.4,21.7-30.9,40-55.3,72.4
											c-9.6,12.7-17.2,27.6-19.4,45.8c-0.4,3.6-0.6,7.2-0.6,10.8c0.1,10.7,1.9,21.3,5.4,31.4c14.8,43.9,55,77.1,62.9,83.6
											c3.6,3,8.5,7,14.5,11.5c8.2,6.2,16.8,11.8,25.8,16.8c16.3,9,35.6,16.3,55.5,16.4h0.4c7.9,0,15.9-1.2,23.9-3.9
											c20.1-6.8,36.1-21.9,48-40.9c6.6-10.5,11.9-22.2,15.9-34.3c7.3-22,10.9-45.8,9.1-69c-4.2-55.5-38.9-73-31.2-127.7
											c4.7-32.7,23.9-74.1,49.4-77.1c29.1-3.5,38.9,46.3,90.4,64.6c32.2,11.5,70.3,7,95.5-7.4c67.1-38.3,79.7-167.7,32.1-249.6
											c-47.4-81.3-144.7-99.6-207.5-102.4c-15.1-0.7-28.3-0.4-38.2,0c-6.6,0.3-13.2,0.8-19.8,1.5
											c-50.3,6.5-96.9,25.6-137.7,51.5c-103.5,65.6-170.5,175-170.5,233.7C171.2-72.9,173.2-64.3,177.2-57.7"/>
									</g>
								</g>
								<g>
									<g>
										<linearGradient id="w45vi_3_" gradientUnits="userSpaceOnUse" x1="-356.9998" y1="23.2" x2="291.9355" y2="23.2">
											<stop  offset="0" style="stop-color:#FFA300"/>
											<stop  offset="1" style="stop-color:#FFBB00"/>
										</linearGradient>
										<path id="w45vi_2_" class="st84" d="M-338,80.6C-269.8-87.5-56.8-52.1-100.8-187.7s262.1-229.2,373.7,31.1
											C384.5,103.8-38.3-59.1,111.3,137.7C260.9,334.5-20.1,384.1-148.9,363.6C-277.6,343.2-406.3,248.7-338,80.6L-338,80.6z"/>
									</g>
								</g>
							</g>
						</g>
					</g>
				</g>
			</g>
		</g>
	</g>
</g>
<g id="Layer_17">
</g>
<g id="Grid">
</g>
<g id="Modale">
</g>
<g id="Bootstrap_Grid" class="st13">
</g>
<g id="Our_Grid" class="st13">
</g>
<g id="Layer_20" class="st13">
</g>
<g id="Layer_22" class="st13">
</g>
<g id="linee_guida" class="st13">
</g>
</svg>
