<?xml version="1.0" encoding="utf-8"?>
<!-- Generator: Adobe Illustrator 21.1.0, SVG Export Plug-In . SVG Version: 6.00 Build 0)  -->
<svg version="1.1" xmlns="http://www.w3.org/2000/svg" xmlns:xlink="http://www.w3.org/1999/xlink" x="0px" y="0px"
	 viewBox="0 0 500 707" style="enable-background:new 0 0 500 707;" xml:space="preserve">
<style type="text/css">
	.st0{fill:#FBFBFB;}
	.st1{clip-path:url(#SVGID_2_);}
	.st2{fill:url(#w45va_3_);}
	.st3{clip-path:url(#SVGID_4_);}
	.st4{fill:#0161CD;}
	.st5{fill:url(#w45vf_3_);}
	.st6{fill:#2C8CF4;}
	.st7{fill:#0353A7;}
	.st8{fill:#282725;}
	.st9{fill:#FFFFFF;}
	.st10{fill:none;stroke:#000000;stroke-miterlimit:10;}
	.st11{opacity:0.5;fill:none;stroke:#000000;stroke-miterlimit:10;}
	.st12{fill:#070606;}
	.st13{fill:#494949;}
	.st14{fill:#D8DBDF;}
	.st15{fill:#F4F4F4;}
	.st16{fill:none;}
	.st17{fill:none;stroke:#B3B3B3;stroke-miterlimit:10;}
	.st18{fill:#FFFFFF;stroke:#B3B3B3;stroke-miterlimit:10;}
	.st19{opacity:0.2;fill:#FFFFFF;}
	.st20{opacity:0.5;fill:#FFFFFF;}
	.st21{fill:#FFFFFF;stroke:#000000;stroke-miterlimit:10;}
	.st22{opacity:0.1;stroke:#000000;stroke-miterlimit:10;}
	.st23{opacity:0.5;}
	.st24{opacity:0.2;}
	.st25{fill:#D1D4DB;}
	.st26{clip-path:url(#SVGID_10_);}
	.st27{fill:#BFC2C4;}
	.st28{fill:none;stroke:#000000;stroke-miterlimit:10;stroke-dasharray:12.2258,12.2258;}
	.st29{fill:none;stroke:#000000;stroke-miterlimit:10;stroke-dasharray:11.973,11.973;}
	.st30{opacity:0.3;fill:none;stroke:#000000;stroke-miterlimit:10;}
	.st31{fill:none;stroke:#CCCCCC;stroke-miterlimit:10;}
	.st32{fill:#999999;}
	.st33{fill:#FFB000;}
	.st34{fill:none;stroke:#EAEAEA;stroke-width:0.5;stroke-miterlimit:10;}
	.st35{clip-path:url(#SVGID_16_);}
	.st36{clip-path:url(#SVGID_18_);}
	.st37{fill:url(#w45va_4_);}
	.st38{clip-path:url(#SVGID_20_);}
	.st39{fill:url(#w45vf_4_);}
	.st40{clip-path:url(#SVGID_22_);}
	.st41{opacity:0.6;fill:#FFFFFF;}
	.st42{clip-path:url(#SVGID_24_);}
	.st43{clip-path:url(#SVGID_28_);}
	.st44{fill:url(#w45va_5_);}
	.st45{clip-path:url(#SVGID_30_);}
	.st46{fill:url(#w45vf_5_);}
	.st47{display:none;}
	.st48{display:inline;}
	.st49{clip-path:url(#SVGID_32_);}
	.st50{display:inline;fill:none;stroke:#ED1E79;stroke-miterlimit:10;}
	.st51{opacity:0.3;fill:#FF3500;}
</style>
<g id="Layer_1">
	<g>
		<defs>
			<rect id="SVGID_27_" x="-8" y="-10.1" width="516" height="728.2"/>
		</defs>
		<clipPath id="SVGID_2_">
			<use xlink:href="#SVGID_27_"  style="overflow:visible;"/>
		</clipPath>
		<g class="st1">
			<g>
				<g>
					<g>
						<g>
							
								<linearGradient id="w45va_3_" gradientUnits="userSpaceOnUse" x1="4967.9502" y1="9467.96" x2="3333.2881" y2="9443.1768" gradientTransform="matrix(0 -1 -1 0 9702.291 5059.8193)">
								<stop  offset="0" style="stop-color:#0161CD"/>
								<stop  offset="1" style="stop-color:#0353A7"/>
							</linearGradient>
							<path id="w45va_2_" class="st2" d="M507.5,2234.7h-516V-51.5h516V2234.7z"/>
						</g>
					</g>
					<g>
						<defs>
							<rect id="SVGID_29_" x="-8.5" y="-51.5" width="516" height="2286.2"/>
						</defs>
						<clipPath id="SVGID_4_">
							<use xlink:href="#SVGID_29_"  style="overflow:visible;"/>
						</clipPath>
						<g class="st3">
							<g>
								<g>
									<path id="w45vd_2_" class="st4" d="M196.4,703.7c-73.7-159.1,91.8-286.5-33-344.7c-124.8-58.2,11-336.5,268.6-244
										c257.6,92.6-136.5,284.4,101.2,308.2c237.8,23.8,87.4,255.3-12,333C421.8,834,270.1,862.8,196.4,703.7L196.4,703.7z"/>
								</g>
							</g>
							<g>
								<g>
									
										<linearGradient id="w45vf_3_" gradientUnits="userSpaceOnUse" x1="4968.8887" y1="9180.8809" x2="4603.4712" y2="9346.6016" gradientTransform="matrix(0 -1 -1 0 9702.291 5059.8193)">
										<stop  offset="0" style="stop-color:#1273EB"/>
										<stop  offset="1" style="stop-color:#2C8CF4"/>
									</linearGradient>
									<path id="w45vf_2_" class="st5" d="M249.7,108.3c24.4,40,130.4,10.5,140.7,45.5c6.2,21-29.9,38.6-53.5,70
										c-9.3,12.3-16.6,26.7-18.7,44.2c-0.4,3.5-0.6,7-0.6,10.4c0.1,10.3,1.9,20.6,5.2,30.3c14.3,42.4,53.2,74.4,60.8,80.7
										c3.5,2.9,8.2,6.8,14,11.1c7.9,6,16.3,11.4,25,16.2c15.8,8.7,34.5,15.8,53.7,15.8h0.4c7.6,0,15.4-1.2,23.1-3.7
										c19.5-6.5,35-21.1,46.5-39.5c6.4-10.2,11.5-21.4,15.4-33.2c7.1-21.3,10.6-44.3,8.8-66.7c-4.1-53.6-37.7-70.5-30.1-123.3
										c4.5-31.6,23.1-71.6,47.8-74.5c28.1-3.4,37.6,44.7,87.5,62.4c31.2,11.1,68,6.8,92.4-7.1c64.9-37,77.2-162,31-241.2
										c-45.8-78.6-140-96.3-200.8-98.9c-14.6-0.6-27.3-0.4-36.9,0c-6.4,0.3-12.8,0.8-19.1,1.5c-48.7,6.3-93.7,24.7-133.3,49.7
										c-100.1,63.4-165,169.1-165,225.8C243.9,93.7,245.8,102,249.7,108.3"/>
								</g>
							</g>
							<g>
								<g>
									<path id="w45vh_2_" class="st6" d="M371.4,575.7c16.2,12.3,36.4,9.4,42.5,8.6c6.5-0.9,38.2-6.4,48-32.1
										c9.3-24.3-6.1-53.1-28.8-65.7c-20.8-11.5-51.1-11.1-69.2,8.2C341.3,518.5,349.1,558.8,371.4,575.7"/>
								</g>
							</g>
							<g>
								<g>
									<path id="w45vi_2_" class="st7" d="M-248.8,242C-182.7,79.5,23.3,113.8-19.3-17.2s253.6-221.4,361.6,30.1
										C450.3,264.4,41.2,107,186,297.1c144.7,190.2-127.2,238-251.8,218.3C-190.4,495.7-314.9,404.4-248.8,242L-248.8,242z"/>
								</g>
							</g>
						</g>
					</g>
				</g>
			</g>
			<rect x="346.8" y="463.2" class="st4" width="128.7" height="149.3"/>
		</g>
	</g>
</g>
<g id="ingombri" class="st47">
</g>
<g id="Layer_2">
</g>
</svg>
