<?xml version="1.0" encoding="utf-8"?>
<!-- Generator: Adobe Illustrator 21.1.0, SVG Export Plug-In . SVG Version: 6.00 Build 0)  -->
<svg version="1.1" xmlns="http://www.w3.org/2000/svg" xmlns:xlink="http://www.w3.org/1999/xlink" x="0px" y="0px"
	 viewBox="0 0 604.7 156.4" style="enable-background:new 0 0 604.7 156.4;" xml:space="preserve">
<style type="text/css">
	.st0{fill:#FFFFFF;}
	.st1{fill:none;stroke:#D0D2D3;stroke-width:3;stroke-linecap:round;stroke-linejoin:round;stroke-miterlimit:10;}
	.st2{fill:#FFFFFF;stroke:#D0D2D3;stroke-width:3;stroke-miterlimit:10;}
	.st3{fill:#F1F1F2;stroke:#DBDBDB;stroke-width:1.5;stroke-miterlimit:10;}
	.st4{fill:#F7941E;}
	.st5{fill:#E5E5E5;stroke:#DBDBDB;stroke-width:2;stroke-miterlimit:10;}
	.st6{opacity:3.000000e-02;fill:url(#);}
	.st7{fill:#999999;}
	.st8{fill:#FFB000;}
	.st9{opacity:0.5;}
	.st10{fill:#282725;}
	.st11{fill-rule:evenodd;clip-rule:evenodd;fill:#FFFFFF;}
	.st12{opacity:0.3;}
	.st13{display:none;}
	.st14{display:inline;}
	.st15{fill:#606060;}
	.st16{display:inline;opacity:0.7;fill:#22B573;}
	.st17{display:inline;opacity:0.5;fill:#E6E6E6;}
	.st18{fill:none;stroke:#FF00FF;stroke-miterlimit:10;}
	.st19{fill:none;stroke:#FF00FF;stroke-miterlimit:10;stroke-dasharray:11.7009,11.7009;}
	.st20{fill:#666666;}
	.st21{fill:#272727;}
	.st22{clip-path:url(#SVGID_20_);}
	.st23{fill:url(#w45va_3_);}
	.st24{clip-path:url(#SVGID_22_);}
	.st25{fill:#0161CD;}
	.st26{fill:url(#w45vf_3_);}
	.st27{fill:#2C8CF4;}
	.st28{fill:#0353A7;}
	.st29{fill:none;stroke:#000000;stroke-miterlimit:10;}
	.st30{fill:none;stroke:#000000;stroke-miterlimit:10;stroke-dasharray:12.2258,12.2258;}
	.st31{fill:none;}
	.st32{fill:none;stroke:#000000;stroke-miterlimit:10;stroke-dasharray:11.973,11.973;}
	.st33{clip-path:url(#SVGID_24_);}
	.st34{clip-path:url(#SVGID_26_);}
	.st35{fill-rule:evenodd;clip-rule:evenodd;fill:#050008;}
	.st36{clip-path:url(#SVGID_28_);}
	.st37{opacity:0.5;fill:none;stroke:#000000;stroke-miterlimit:10;}
	.st38{opacity:0.3;fill:none;stroke:#000000;stroke-miterlimit:10;}
	.st39{fill:#070606;}
	.st40{fill:#FFFFFF;stroke:#CCCCCC;stroke-miterlimit:10;}
	.st41{fill:#CCCCCC;}
	.st42{fill:#4D4D4D;}
	.st43{fill:#B3B3B3;}
	.st44{fill:none;stroke:#B3B3B3;stroke-miterlimit:10;}
	.st45{fill:#00FF00;}
	.st46{fill:#D8DBDF;}
	.st47{fill:#BFC2C4;}
	.st48{fill:#FFFFFF;stroke:#FFFFFF;stroke-miterlimit:10;}
	.st49{fill:none;stroke:#000000;stroke-width:2;stroke-miterlimit:10;}
	.st50{fill:#808080;}
	.st51{fill:#0071BC;}
	.st52{clip-path:url(#SVGID_30_);}
	.st53{clip-path:url(#SVGID_32_);}
	.st54{clip-path:url(#SVGID_34_);}
	.st55{opacity:0.2;fill:#29ABE2;}
	.st56{fill:#FF7BAC;}
	.st57{clip-path:url(#SVGID_36_);}
	.st58{fill:none;stroke:#FF00FF;stroke-miterlimit:10;stroke-dasharray:11.927,11.927;}
	.st59{fill:#F4F4F4;}
	.st60{fill:#494949;}
	.st61{opacity:0.6;}
	.st62{fill:#FFFFFF;stroke:#B3B3B3;stroke-miterlimit:10;}
	.st63{fill:#0076FF;}
	.st64{fill:none;stroke:#D8DBDF;stroke-miterlimit:10;}
	.st65{fill:none;stroke:#BFC2C4;stroke-miterlimit:10;}
	.st66{opacity:0.2;fill:#FFFFFF;}
	.st67{opacity:0.5;fill:#FFFFFF;}
	.st68{fill:#FFFFFF;stroke:#C1272D;stroke-miterlimit:10;}
	.st69{fill:#C1272D;}
	.st70{fill:#FFFFFF;stroke:#009245;stroke-miterlimit:10;}
	.st71{fill:#009245;}
	.st72{fill:#F2F3F5;}
	.st73{fill:#E9E9E9;}
	.st74{fill:#FFFFFF;stroke:#E6E6E6;stroke-width:0.5;stroke-miterlimit:10;}
	.st75{fill:none;stroke:#FF7BAC;stroke-miterlimit:10;}
	.st76{fill:none;stroke:#0071BC;stroke-miterlimit:10;}
	.st77{fill:none;stroke:#C1272D;stroke-miterlimit:10;}
	.st78{fill:none;stroke:#009245;stroke-miterlimit:10;}
	.st79{clip-path:url(#SVGID_112_);}
	.st80{clip-path:url(#SVGID_116_);}
	.st81{fill:url(#w45va_4_);}
	.st82{clip-path:url(#SVGID_118_);}
	.st83{fill:#FFA300;}
	.st84{fill:url(#w45vf_4_);}
	.st85{fill:#F4972C;}
	.st86{fill:url(#w45vi_3_);}
	.st87{clip-path:url(#SVGID_120_);}
	.st88{clip-path:url(#SVGID_122_);}
	.st89{fill:url(#w45va_5_);}
	.st90{clip-path:url(#SVGID_124_);}
	.st91{fill:url(#w45vf_5_);}
	.st92{fill:url(#w45vi_4_);}
	.st93{opacity:0.6;fill:#FFFFFF;}
	.st94{fill:none;stroke:#FF00FF;stroke-miterlimit:10;stroke-dasharray:12.2258,12.2258;}
	.st95{opacity:0.3;fill:#FF7BAC;}
	.st96{display:inline;opacity:0.4;fill:#FF3500;}
	.st97{display:inline;opacity:0.5;fill:#FF3500;}
	.st98{opacity:0.3;fill:#FF3500;}
	.st99{fill:#FF3500;}
	.st100{display:inline;opacity:0.5;fill:#0071BC;}
	.st101{display:inline;opacity:0.5;fill:#FFB000;}
	.st102{display:inline;opacity:0.5;fill:#ED1C24;}
	.st103{display:inline;opacity:0.5;fill:#D9E021;}
</style>
<g id="iPhone">
</g>
<g id="bg_grey">
</g>
<g id="Chats">
</g>
<g id="Chat_Actions">
</g>
<g id="Bg_Header">
</g>
<g id="Search_Icon">
</g>
<g id="Tabs_Menu">
</g>
<g id="Logo">
</g>
<g id="Profile_Icon">
</g>
<g id="guidances" class="st13">
</g>
<g id="Prove_Logo">
</g>
<g id="screen_borders">
	<g>
		<g>
			<g>
				<path class="st21" d="M2,154.6c0,0,40.6-127.5,123.7-122.2c0,0-27.6,35.3-53.6,40.7c0,0,16.8,5.5,27.6-1.5
					c0,0-11.8,21.3-43.9,23.9c0,0,15,7.7,25.5,2c0,0-13.6,21.8-43.3,21.8c0,0,16,6.2,25.9,2.8c0,0-13.2,19-44.7,17.3
					c-3.1-0.2-3.9-0.5-3.9-0.5L2,154.6z M2,154.6"/>
			</g>
		</g>
		<g>
			<path class="st21" d="M146.3,141.7c-0.3,0.6-0.5,1.1-0.7,1.5c-0.2,0.4-0.4,0.8-0.6,1.1c-0.2,0.3-0.5,0.5-0.9,0.7
				s-0.8,0.2-1.4,0.2h-9.1c-2.5,0-3.7-1.2-3.7-3.5V72.8c0-0.5,0.1-1,0.3-1.4c0.2-0.4,0.5-0.8,0.8-1.1s0.7-0.5,1.1-0.7
				c0.4-0.2,0.8-0.3,1.2-0.3h10.5c1.2,0,2.1,0.3,2.8,1s1,1.5,1,2.5v21c0.9-0.9,1.8-1.9,2.8-2.8c1-1,2-1.8,3.2-2.6
				c1.2-0.8,2.4-1.4,3.8-1.9s2.9-0.7,4.6-0.7c4.2,0,8,0.8,11.5,2.3c3.5,1.6,6.5,3.7,9.1,6.4s4.5,5.9,5.9,9.6
				c1.4,3.7,2.1,7.6,2.1,11.9c0,4.2-0.7,8.2-2.1,11.9c-1.4,3.7-3.4,6.9-5.9,9.6s-5.6,4.9-9.1,6.4c-3.5,1.6-7.4,2.3-11.5,2.3
				c-1.6,0-3-0.3-4.4-0.8c-1.4-0.5-2.7-1.2-3.9-2c-1.2-0.8-2.3-1.7-3.3-2.7c-1-1-1.9-1.8-2.8-2.7L146.3,141.7z M174.1,116
				c0-2-0.3-3.8-0.9-5.6s-1.5-3.4-2.7-4.7c-1.2-1.4-2.6-2.4-4.2-3.2s-3.5-1.2-5.5-1.2c-2,0-3.9,0.4-5.7,1.2s-3.3,1.9-4.6,3.2
				c-1.3,1.4-2.3,2.9-3.1,4.7s-1.1,3.7-1.1,5.6v0.6c0.1,1.9,0.5,3.8,1.3,5.4c0.8,1.7,1.8,3.2,3.1,4.4c1.3,1.2,2.8,2.2,4.5,2.9
				c1.7,0.7,3.6,1.1,5.5,1.1c2,0,3.9-0.4,5.5-1.1s3-1.8,4.2-3.1c1.2-1.3,2.1-2.8,2.7-4.6C173.8,119.9,174.1,118,174.1,116z"/>
			<path class="st21" d="M197.2,72.9c0-1,0.2-1.8,0.7-2.5c0.5-0.7,1.3-1,2.5-1h11.3c0.3,0,0.6,0.1,1,0.3s0.7,0.4,0.9,0.7
				c0.3,0.3,0.5,0.7,0.7,1.1c0.2,0.4,0.3,0.9,0.3,1.4v68.8c0,1.2-0.3,2.1-1,2.6c-0.7,0.6-1.5,0.9-2.6,0.9h-10.7
				c-1.2,0-2-0.3-2.5-0.9c-0.5-0.6-0.7-1.5-0.7-2.6V72.9z"/>
			<path class="st21" d="M345.6,73.3c0-1,0.2-1.8,0.7-2.5c0.5-0.7,1.3-1,2.5-1h11.3c0.3,0,0.6,0.1,1,0.3s0.7,0.4,0.9,0.7
				c0.3,0.3,0.5,0.7,0.7,1.1c0.2,0.4,0.3,0.9,0.3,1.4v68.8c0,1.2-0.3,2.1-1,2.6c-0.7,0.6-1.5,0.9-2.6,0.9h-10.7
				c-1.2,0-2-0.3-2.5-0.9c-0.5-0.6-0.7-1.5-0.7-2.6V73.3z"/>
			<path class="st21" d="M283.2,141.8c0,0.5-0.1,1-0.3,1.5c-0.2,0.5-0.5,0.9-0.9,1.1c-0.3,0.3-0.7,0.6-1.2,0.6
				c-0.5,0.1-0.9,0.1-1.2,0.1h-9.1c-0.6,0-1.2-0.1-1.6-0.3c-0.4-0.2-0.7-0.4-1-0.7c-0.2-0.3-0.5-0.7-0.6-1.1s-0.3-0.9-0.5-1.5
				l-1.3-3.5c-0.8,0.8-1.7,1.7-2.7,2.6c-1,0.9-2.1,1.8-3.2,2.6c-1.2,0.8-2.5,1.5-3.8,2c-1.4,0.5-2.9,0.8-4.4,0.8
				c-2.8,0-5.5-0.4-8-1.1c-2.6-0.7-5-1.7-7.2-3c-2.2-1.3-4.2-2.9-6.1-4.7c-1.8-1.8-3.4-3.9-4.7-6.1c-1.3-2.2-2.3-4.7-3-7.3
				c-0.7-2.6-1.1-5.3-1.1-8.1c0-4.3,0.8-8.2,2.3-11.9c1.6-3.7,3.7-6.9,6.4-9.6c2.7-2.7,5.9-4.9,9.5-6.4c3.7-1.6,7.6-2.3,11.7-2.3
				c1.9,0,3.7,0.3,5.3,0.9c1.6,0.6,3,1.3,4.4,2.2c1.3,0.9,2.5,2,3.5,3.1c1.1,1.2,2,2.3,2.8,3.5L269,90c0.3-0.8,0.6-1.4,0.8-1.9
				c0.2-0.5,0.4-0.8,0.6-1.1c0.2-0.2,0.5-0.4,0.9-0.5c0.3-0.1,0.8-0.1,1.4-0.1h6.9c0.3,0,0.7,0,1.2,0.1c0.5,0.1,0.9,0.3,1.2,0.6
				c0.4,0.3,0.7,0.7,0.9,1.2c0.2,0.4,0.3,0.9,0.3,1.5V141.8z M237.8,116c0,2,0.3,3.9,0.9,5.7c0.6,1.8,1.5,3.3,2.7,4.6
				s2.6,2.3,4.2,3.1s3.5,1.1,5.5,1.1c2.1,0,4-0.4,5.7-1.1c1.8-0.8,3.3-1.8,4.6-3.1c1.3-1.3,2.3-2.8,3.1-4.6c0.7-1.8,1.1-3.7,1.1-5.7
				c0-2-0.4-3.8-1.1-5.6s-1.8-3.4-3.1-4.7c-1.3-1.4-2.8-2.4-4.6-3.2c-1.8-0.8-3.7-1.2-5.7-1.2c-2,0-3.8,0.4-5.5,1.2s-3,1.9-4.2,3.2
				c-1.2,1.4-2.1,2.9-2.7,4.7S237.8,114,237.8,116z"/>
			<path class="st21" d="M328.9,127.2c0.4-0.3,0.8-0.5,1.2-0.6c0.4-0.1,0.7-0.1,0.9-0.1c0.5,0,1,0.1,1.4,0.3
				c0.4,0.2,0.9,0.7,1.3,1.4l5.2,7.8c0.2,0.2,0.3,0.5,0.4,0.8c0.1,0.3,0.2,0.6,0.2,0.7c0,0.7-0.2,1.3-0.7,1.7
				c-0.4,0.4-0.9,0.8-1.5,1.2c-2.5,1.7-5.3,3.2-8.3,4.2c-3,1.1-6.2,1.6-9.5,1.6c-2.8,0-5.4-0.4-8-1.1c-2.6-0.7-5-1.7-7.2-3
				c-2.2-1.3-4.2-2.9-6.1-4.7s-3.4-3.9-4.7-6.1s-2.3-4.7-3-7.3c-0.7-2.6-1.1-5.3-1.1-8.1c0-2.8,0.4-5.5,1.1-8.2c0.7-2.6,1.7-5,3-7.3
				c1.3-2.2,2.9-4.3,4.7-6.1c1.8-1.8,3.9-3.4,6.1-4.7c2.2-1.3,4.6-2.3,7.2-3c2.6-0.7,5.2-1.1,8-1.1c3.3,0,6.4,0.4,9.3,1.3
				c2.8,0.9,5.5,2.2,8,4l-0.1-0.1c0.7,0.4,1.2,0.9,1.6,1.4c0.4,0.5,0.6,1.2,0.6,2c0,0.6-0.2,1.1-0.6,1.7l-4.1,7
				c-0.9,1.5-1.9,2.3-3.1,2.3c-0.3,0-0.6-0.1-1-0.2c-0.4-0.1-0.8-0.4-1.3-0.7c-1.4-0.9-2.8-1.6-4.4-2.2c-1.6-0.6-3.2-0.9-5-0.9
				c-1.9,0-3.7,0.4-5.3,1.2c-1.6,0.8-3,1.9-4.2,3.2c-1.2,1.4-2,2.9-2.7,4.7s-1,3.7-1,5.6c0,2,0.3,3.9,1,5.7c0.6,1.8,1.5,3.3,2.7,4.6
				c1.2,1.3,2.5,2.3,4.2,3.1c1.6,0.8,3.4,1.1,5.3,1.1c1.8,0,3.4-0.3,4.9-0.9C326.1,129,327.5,128.2,328.9,127.2z"/>
			<path class="st21" d="M419.2,141.7c-0.3,0.6-0.5,1.1-0.7,1.5c-0.2,0.4-0.4,0.8-0.6,1.1c-0.2,0.3-0.5,0.5-0.9,0.7
				s-0.8,0.2-1.4,0.2h-9.1c-2.5,0-3.7-1.2-3.7-3.5V72.8c0-0.5,0.1-1,0.3-1.4c0.2-0.4,0.5-0.8,0.8-1.1c0.3-0.3,0.7-0.5,1.1-0.7
				c0.4-0.2,0.8-0.3,1.2-0.3h10.5c1.2,0,2.1,0.3,2.8,1s1,1.5,1,2.5v21c0.9-0.9,1.8-1.9,2.8-2.8c1-1,2-1.8,3.2-2.6
				c1.2-0.8,2.4-1.4,3.8-1.9s2.9-0.7,4.6-0.7c4.2,0,8,0.8,11.5,2.3c3.5,1.6,6.5,3.7,9.1,6.4c2.5,2.7,4.5,5.9,5.9,9.6
				c1.4,3.7,2.1,7.6,2.1,11.9c0,4.2-0.7,8.2-2.1,11.9c-1.4,3.7-3.4,6.9-5.9,9.6c-2.5,2.7-5.6,4.9-9.1,6.4c-3.5,1.6-7.4,2.3-11.5,2.3
				c-1.6,0-3-0.3-4.4-0.8c-1.4-0.5-2.7-1.2-3.9-2c-1.2-0.8-2.3-1.7-3.3-2.7c-1-1-1.9-1.8-2.8-2.7L419.2,141.7z M446.9,116
				c0-2-0.3-3.8-0.9-5.6c-0.6-1.8-1.5-3.4-2.7-4.7c-1.2-1.4-2.6-2.4-4.2-3.2c-1.6-0.8-3.5-1.2-5.5-1.2c-2,0-3.9,0.4-5.7,1.2
				s-3.3,1.9-4.6,3.2c-1.3,1.4-2.3,2.9-3.1,4.7c-0.8,1.8-1.1,3.7-1.1,5.6v0.6c0.1,1.9,0.5,3.8,1.3,5.4c0.8,1.7,1.8,3.2,3.1,4.4
				c1.3,1.2,2.8,2.2,4.5,2.9c1.7,0.7,3.6,1.1,5.5,1.1c2,0,3.9-0.4,5.5-1.1c1.6-0.8,3-1.8,4.2-3.1s2.1-2.8,2.7-4.6
				C446.6,119.9,446.9,118,446.9,116z"/>
			<path class="st21" d="M470,67c0-1.3,0.3-2.2,0.8-2.7c0.6-0.5,1.4-0.8,2.6-0.8h10.7c1.1,0,1.9,0.3,2.6,0.8c0.7,0.5,1,1.5,1,2.7v9
				c0,0.4-0.1,0.8-0.3,1.2c-0.2,0.4-0.4,0.8-0.7,1.2s-0.7,0.7-1.1,1c-0.4,0.3-0.9,0.4-1.5,0.4h-10.7c-2.3,0-3.4-1.3-3.4-3.8V67z
				 M470,90.3c0-1,0.3-1.8,0.8-2.5c0.6-0.7,1.4-1.1,2.6-1.1h10.5c0.4,0,0.8,0.1,1.2,0.3s0.8,0.4,1.2,0.7s0.7,0.7,0.9,1.1
				c0.3,0.4,0.4,0.9,0.4,1.5v51.4c0,1.2-0.3,2.1-1,2.6c-0.6,0.6-1.6,0.9-2.8,0.9h-10.5c-2.3,0-3.4-1.2-3.4-3.5V90.3z"/>
			<path class="st21" d="M382.4,90.2c0.7-0.7,1.5-1.1,2.4-1.2c0.9-0.1,1.7,0.2,2.6,1.1l7.5,7.5c0.3,0.3,0.5,0.6,0.7,1
				s0.3,0.9,0.3,1.4c0,0.5,0,1-0.1,1.5s-0.4,0.9-0.8,1.3l-24.8,24.8c-0.8,0.8-1.7,1.2-2.6,1.2c-0.9,0-1.7-0.5-2.6-1.3l-7.5-7.5
				c-1.6-1.6-1.6-3.2,0.1-4.9L382.4,90.2z"/>
			<path class="st21" d="M357.5,120.2c-0.7-0.7-1.1-1.5-1.2-2.4c-0.1-0.9,0.2-1.7,1.1-2.6l7.5-7.5c0.3-0.3,0.6-0.5,1-0.7
				c0.4-0.2,0.9-0.3,1.4-0.3c0.5,0,1,0,1.5,0.1c0.5,0.1,0.9,0.4,1.3,0.8l24.8,24.8c0.8,0.8,1.2,1.7,1.2,2.6c0,0.9-0.5,1.7-1.3,2.6
				l-7.5,7.5c-1.6,1.6-3.2,1.6-4.9-0.1L357.5,120.2z"/>
			<path class="st21" d="M495.9,90.1c0-0.5,0.1-1,0.3-1.5c0.2-0.5,0.5-0.9,0.9-1.1c0.8-0.5,1.6-0.8,2.5-0.8h7c0.6,0,1,0.1,1.4,0.3
				s0.6,0.5,0.9,0.8c0.2,0.3,0.4,0.7,0.6,1.2s0.4,0.9,0.6,1.3c0.1,0.1,0.2,0.4,0.4,0.9c0.2,0.5,0.4,1,0.6,1.6
				c0.2,0.6,0.4,1.1,0.6,1.6c0.2,0.5,0.3,0.8,0.4,1c0.9-1,1.8-2.1,2.6-3.2c0.8-1.1,1.7-2.2,2.7-3.1c1-1,2-1.7,3.2-2.3
				c1.2-0.6,2.5-0.9,4.1-0.9c1.7,0,3.1,0.1,4.4,0.4c1.3,0.2,2.5,0.6,3.7,1.1c1.2,0.5,2.3,1.1,3.5,1.8c1.2,0.7,2.4,1.6,3.8,2.6
				c2.1,1.1,2.5,2.8,1.2,5.1l-4.2,7.1c-0.6,0.9-1.4,1.5-2.3,1.7s-1.9,0.1-2.9-0.4c-1.3-1.3-2.7-2.2-4-2.9s-2.9-0.9-4.7-0.9
				c-1.2,0-2.2,0.2-3.2,0.5c-0.9,0.3-1.7,0.8-2.5,1.4c-0.7,0.6-1.4,1.4-2.1,2.2c-0.6,0.9-1.3,1.8-1.9,2.9v33.3
				c0,1.2-0.3,2.1-0.9,2.6c-0.6,0.6-1.5,0.9-2.8,0.9h-10.4c-2.4,0-3.6-1.2-3.6-3.5V90.1z"/>
			<path class="st21" d="M582.9,138.1c-0.8,0.8-1.7,1.7-2.7,2.7c-1,1-2.1,1.8-3.3,2.7c-1.2,0.8-2.5,1.5-3.9,2
				c-1.4,0.5-2.9,0.8-4.5,0.8c-4.2,0-8-0.8-11.5-2.3c-3.5-1.6-6.5-3.7-9.1-6.4s-4.5-5.9-5.9-9.6c-1.4-3.7-2.1-7.6-2.1-11.9
				c0-4.3,0.7-8.2,2.1-11.9c1.4-3.7,3.4-6.9,5.9-9.6s5.6-4.9,9.1-6.4c3.5-1.6,7.4-2.3,11.5-2.3c1.7,0,3.2,0.2,4.6,0.7
				s2.7,1.1,3.8,1.9c1.2,0.8,2.2,1.6,3.2,2.6c1,1,1.9,1.9,2.7,2.8v-21c0-1,0.3-1.8,0.9-2.5c0.6-0.7,1.5-1,2.7-1h10.4
				c0.4,0,0.8,0.1,1.3,0.3s0.9,0.4,1.2,0.7c0.4,0.3,0.7,0.7,0.9,1.1c0.2,0.4,0.3,0.9,0.3,1.4v68.9c0,2.4-1.2,3.5-3.7,3.5h-9
				c-0.6,0-1.1-0.1-1.4-0.2s-0.6-0.4-0.9-0.7c-0.2-0.3-0.4-0.7-0.6-1.1c-0.2-0.4-0.4-1-0.7-1.5L582.9,138.1z M556.4,116
				c0,2,0.3,3.9,0.9,5.7c0.6,1.8,1.5,3.3,2.7,4.6c1.2,1.3,2.6,2.3,4.2,3.1s3.5,1.1,5.5,1.1c2,0,3.8-0.4,5.5-1.1
				c1.7-0.7,3.2-1.7,4.5-2.9s2.3-2.7,3.1-4.4c0.8-1.7,1.2-3.5,1.3-5.4V116c0-2-0.4-3.8-1.1-5.6s-1.8-3.4-3.1-4.7
				c-1.3-1.4-2.8-2.4-4.6-3.2c-1.8-0.8-3.7-1.2-5.7-1.2c-2,0-3.8,0.4-5.5,1.2s-3,1.9-4.2,3.2c-1.2,1.4-2.1,2.9-2.7,4.7
				C556.8,112.2,556.4,114,556.4,116z"/>
		</g>
	</g>
	<g>
		<g>
			<path class="st20" d="M199.6,7.2l-9.4,45.2h-6.9l-9.2-35.9l-9.3,35.9H158l-9.5-45.2h7.6l5.9,34l8.7-34h6.9l8.7,33.9l5.8-33.9
				H199.6z"/>
			<path class="st20" d="M231.8,38.7h-23c0.3,2.9,1.3,5.1,2.8,6.6c1.5,1.5,3.6,2.3,6.3,2.3c3.8,0,6.8-1.5,9.2-4.5l3.5,3.4
				c-1.2,2-3,3.6-5.4,4.7c-2.3,1.1-4.9,1.7-7.7,1.7c-4.8,0-8.6-1.5-11.3-4.4c-2.7-2.9-4-7-4-12.3c0-5.2,1.4-9.4,4.1-12.4
				c2.7-3,6.4-4.5,11.2-4.5c4.5,0,8,1.5,10.5,4.4c2.5,2.9,3.8,7.1,3.8,12.4V38.7z M225.8,33.6c0-2.8-0.8-5-2.3-6.6
				c-1.5-1.6-3.6-2.4-6.2-2.4c-2.5,0-4.4,0.8-5.9,2.5c-1.5,1.6-2.3,4-2.6,7h17V33.6z"/>
			<path class="st20" d="M240.1,50.9c-1.2-1.4-1.9-3.5-1.9-6.2V4.5h6.4v40.2c0,1.3,0.2,2.3,0.7,2.8c0.5,0.6,1.3,0.8,2.4,0.8
				c0.9,0,2-0.3,3.4-0.8l1,3.7c-1.7,1.2-3.8,1.8-6.5,1.8C243.2,53,241.4,52.3,240.1,50.9z"/>
			<path class="st20" d="M257.8,48.6c-2.7-3-4.1-7.1-4.1-12.3c0-5.3,1.4-9.4,4.1-12.4c2.7-2.9,6.5-4.4,11.4-4.4
				c2.8,0,5.3,0.5,7.4,1.6c2.1,1.1,3.8,2.6,5,4.6l-3.8,3.4c-0.9-1.5-2.1-2.6-3.5-3.4c-1.5-0.8-3.1-1.2-4.8-1.2c-2.9,0-5.2,1-6.8,3.1
				c-1.6,2.1-2.5,4.9-2.5,8.6c0,3.7,0.8,6.5,2.5,8.6c1.6,2.1,3.9,3.1,6.8,3.1c1.7,0,3.3-0.4,4.8-1.2c1.5-0.8,2.6-2,3.5-3.4l3.8,3.4
				c-1.2,2-2.9,3.6-5,4.6c-2.1,1.1-4.6,1.6-7.4,1.6C264.3,53,260.5,51.5,257.8,48.6z"/>
			<path class="st20" d="M289.1,48.5c-2.8-3-4.3-7.1-4.3-12.3c0-5.2,1.4-9.3,4.3-12.3c2.8-3,6.7-4.5,11.7-4.5
				c4.9,0,8.9,1.5,11.7,4.5c2.9,3,4.3,7.1,4.3,12.3c0,5.2-1.4,9.3-4.3,12.3c-2.9,3-6.8,4.5-11.7,4.5C295.9,53,292,51.5,289.1,48.5z
				 M307.8,45c1.7-2.1,2.6-5,2.6-8.7c0-3.7-0.9-6.6-2.6-8.7c-1.7-2.1-4.1-3.2-7-3.2c-3,0-5.4,1.1-7,3.2c-1.7,2.1-2.5,5-2.5,8.7
				c0,3.7,0.8,6.6,2.5,8.7c1.7,2.1,4,3.2,7,3.2C303.8,48.2,306.1,47.1,307.8,45z"/>
			<path class="st20" d="M322.7,28.4c0-3.3-0.1-6-0.3-8.3h5.7c0.2,1.6,0.3,3.5,0.3,5.7h0.2c0.8-1.9,2.1-3.5,4-4.6
				c1.8-1.1,3.9-1.7,6.2-1.7c2.3,0,4.2,0.5,5.9,1.6c1.6,1.1,2.7,2.6,3.3,4.6c0.9-1.9,2.3-3.5,4.1-4.6c1.8-1.1,3.9-1.7,6.2-1.7
				c3.6,0,6.4,1.2,8.4,3.5c2,2.3,3,5.5,3,9.5v19.9h-6.4V33c0-2.7-0.6-4.7-1.7-6.2c-1.1-1.5-2.8-2.2-4.9-2.2c-2.2,0-3.9,0.8-5.3,2.4
				c-1.4,1.6-2,3.6-2,6.1v19.3h-6.3V33.3c0-5.8-2.1-8.6-6.3-8.6c-1.4,0-2.6,0.4-3.8,1.2c-1.1,0.8-2.1,1.8-2.7,3.2
				c-0.7,1.3-1,2.8-1,4.3v19.1h-6.3V28.4z"/>
			<path class="st20" d="M405,38.7h-23c0.3,2.9,1.3,5.1,2.8,6.6c1.5,1.5,3.6,2.3,6.3,2.3c3.8,0,6.8-1.5,9.2-4.5l3.5,3.4
				c-1.2,2-3,3.6-5.4,4.7c-2.3,1.1-4.9,1.7-7.7,1.7c-4.8,0-8.6-1.5-11.3-4.4c-2.7-2.9-4-7-4-12.3c0-5.2,1.4-9.4,4.1-12.4
				c2.7-3,6.4-4.5,11.2-4.5c4.5,0,8,1.5,10.5,4.4c2.5,2.9,3.8,7.1,3.8,12.4V38.7z M399,33.6c0-2.8-0.8-5-2.3-6.6
				c-1.5-1.6-3.6-2.4-6.2-2.4c-2.5,0-4.4,0.8-5.9,2.5c-1.5,1.6-2.3,4-2.6,7h17V33.6z"/>
			<path class="st20" d="M431.8,50.3c-1.7-1.8-2.5-4.4-2.5-7.6V25h-5.8v-4.9h5.8v-8.5l6.1-1.8h0.3v10.3h9.2V25h-9.2v16.9
				c0,2.1,0.4,3.7,1.3,4.6c0.8,1,2.1,1.5,3.8,1.5c1.7,0,3.2-0.3,4.6-0.8l0.4,4.6c-1.6,0.8-3.9,1.2-6.8,1.2
				C435.8,53,433.5,52.1,431.8,50.3z"/>
			<path class="st20" d="M452.5,48.5c-2.8-3-4.3-7.1-4.3-12.3c0-5.2,1.4-9.3,4.3-12.3c2.8-3,6.7-4.5,11.7-4.5
				c4.9,0,8.9,1.5,11.7,4.5c2.9,3,4.3,7.1,4.3,12.3c0,5.2-1.4,9.3-4.3,12.3c-2.9,3-6.8,4.5-11.7,4.5C459.2,53,455.4,51.5,452.5,48.5
				z M471.2,45c1.7-2.1,2.6-5,2.6-8.7c0-3.7-0.9-6.6-2.6-8.7c-1.7-2.1-4.1-3.2-7-3.2c-3,0-5.4,1.1-7,3.2c-1.7,2.1-2.5,5-2.5,8.7
				c0,3.7,0.8,6.6,2.5,8.7c1.7,2.1,4,3.2,7,3.2C467.2,48.2,469.5,47.1,471.2,45z"/>
		</g>
	</g>
</g>
<g id="Wireframe">
</g>
<g id="Palette">
</g>
<g id="Header_x2F_Footer">
</g>
<g id="Layer_17">
</g>
<g id="Grid">
</g>
<g id="Modale">
</g>
<g id="Bootstrap_Grid" class="st13">
</g>
<g id="Our_Grid" class="st13">
</g>
<g id="Layer_20" class="st13">
</g>
<g id="Layer_22" class="st13">
</g>
<g id="linee_guida" class="st13">
</g>
</svg>
