<?xml version="1.0" encoding="utf-8"?>
<!-- Generator: Adobe Illustrator 21.1.0, SVG Export Plug-In . SVG Version: 6.00 Build 0)  -->
<svg version="1.1" xmlns="http://www.w3.org/2000/svg" xmlns:xlink="http://www.w3.org/1999/xlink" x="0px" y="0px"
	 viewBox="0 0 119.4 115.3" style="enable-background:new 0 0 119.4 115.3;" xml:space="preserve">
<style type="text/css">
	.st0{fill:#FFFFFF;}
	.st1{fill:none;stroke:#CFD1D2;stroke-width:3;stroke-linecap:round;stroke-linejoin:round;stroke-miterlimit:10;}
	.st2{fill:#FFFFFF;stroke:#CFD1D2;stroke-width:3;stroke-miterlimit:10;}
	.st3{fill:#F0F0F1;stroke:#DADADA;stroke-width:1.5;stroke-miterlimit:10;}
	.st4{fill:#F39322;}
	.st5{fill:#E3E4E3;stroke:#DADADA;stroke-width:2;stroke-miterlimit:10;}
	.st6{fill:#4E4D4D;}
	.st7{fill:#FFFFFF;stroke:#CCCBCB;stroke-miterlimit:10;}
	.st8{fill:#B3B3B2;}
	.st9{fill:#0971B7;}
	.st10{fill:#F8AE15;}
	.st11{fill:#676767;}
	.st12{fill:#F1F2F4;}
	.st13{fill:none;stroke:#A55299;stroke-miterlimit:10;}
	.st14{fill:none;stroke:#A55299;stroke-miterlimit:10;stroke-dasharray:12.2258,12.2258;}
	.st15{fill:none;stroke:#D0D2D3;stroke-width:3;stroke-linecap:round;stroke-linejoin:round;stroke-miterlimit:10;}
	.st16{fill:#FFFFFF;stroke:#D0D2D3;stroke-width:3;stroke-miterlimit:10;}
	.st17{fill:#F1F1F2;stroke:#DBDBDB;stroke-width:1.5;stroke-miterlimit:10;}
	.st18{fill:#F7941E;}
	.st19{fill:#E5E5E5;stroke:#DBDBDB;stroke-width:2;stroke-miterlimit:10;}
	.st20{fill:#D8DBDF;}
	.st21{fill:#BFC2C4;}
	.st22{fill:#FFFFFF;stroke:#FFFFFF;stroke-miterlimit:10;}
	.st23{fill:none;stroke:#000000;stroke-width:2;stroke-miterlimit:10;}
	.st24{fill:#4D4D4D;}
	.st25{fill:#666666;}
	.st26{fill:#FFFFFF;stroke:#CCCCCC;stroke-miterlimit:10;}
	.st27{fill:#808080;}
	.st28{fill:#B3B3B3;}
	.st29{fill:#FFB000;}
	.st30{fill:#F2F3F5;}
	.st31{fill:none;stroke:#FF00FF;stroke-miterlimit:10;}
	.st32{fill:none;stroke:#FF00FF;stroke-miterlimit:10;stroke-dasharray:12.2258,12.2258;}
	.st33{opacity:0.2;fill:#28348A;}
	.st34{fill:#FFFFFF;stroke:#C1272D;stroke-miterlimit:10;}
	.st35{fill:#C1272D;}
	.st36{fill:#009245;}
	.st37{fill:#999999;}
	.st38{fill:none;stroke:#E6E6E6;stroke-width:0.5;stroke-miterlimit:10;}
	.st39{fill-rule:evenodd;clip-rule:evenodd;fill:#FFFFFF;}
	.st40{opacity:0.5;}
	.st41{fill:#282725;}
	.st42{opacity:0.3;}
	.st43{fill:none;stroke:#FF00FF;stroke-miterlimit:10;stroke-dasharray:11.927,11.927;}
	.st44{opacity:0.1;}
	.st45{opacity:0.2;fill:#F8AE15;}
	.st46{opacity:0.3;fill:#1D70B7;}
	.st47{opacity:0.3;fill:#662482;}
	.st48{opacity:0.3;fill:#DDDB00;}
	.st49{opacity:0.3;fill:#009540;}
	.st50{fill:none;stroke:#4E4D4D;stroke-miterlimit:10;}
	.st51{fill:none;stroke:#4E4D4D;stroke-miterlimit:10;stroke-dasharray:7.467,7.467;}
	.st52{fill:none;stroke:#4E4D4D;stroke-miterlimit:10;stroke-dasharray:10.1756,10.1756;}
	.st53{opacity:0.3;fill:#006633;}
	.st54{opacity:0.3;fill:#BD1622;}
</style>
<g id="Layer_1">
	<g>
		<g>
			<path class="st29" d="M94.2,23.1C85,13.9,72.7,8.8,59.7,8.8s-25.3,5.1-34.5,14.3C7.3,40.9,6,69.4,21.9,88.6
				c-2.2,4.5-4.8,7.5-7.7,8.9c-1.8,0.9-2.8,2.8-2.5,4.8c0.3,2,1.8,3.5,3.8,3.8c1.1,0.2,2.3,0.3,3.5,0.3c6,0,12.3-2.1,17.6-5.7
				c7.1,3.8,15,5.8,23.1,5.8c13.1,0,25.3-5.1,34.5-14.3c9.2-9.2,14.3-21.5,14.3-34.5C108.5,44.6,103.4,32.3,94.2,23.1L94.2,23.1z
				 M90.3,88.3C82.1,96.5,71.2,101,59.7,101c-7.7,0-15.3-2.1-21.9-6c-0.4-0.2-0.9-0.4-1.4-0.4c-0.6,0-1.2,0.2-1.7,0.6
				c-6.3,4.8-12.6,5.6-15.3,5.6c3.3-2.5,6.1-6.3,8.4-11.6c0.4-1,0.2-2.1-0.5-2.9C12.1,69.2,12.9,43.1,29,27
				c8.2-8.2,19.1-12.7,30.6-12.7c11.6,0,22.4,4.5,30.6,12.7C107.2,43.9,107.2,71.4,90.3,88.3L90.3,88.3z M90.3,88.3"/>
		</g>
		<path class="st29" d="M80.1,41.5H39.2c-1.5,0-2.8,1.2-2.8,2.8s1.2,2.8,2.8,2.8h40.9c1.5,0,2.8-1.2,2.8-2.8S81.7,41.5,80.1,41.5
			L80.1,41.5z M80.1,41.5"/>
		<path class="st29" d="M80.1,54.9H39.2c-1.5,0-2.8,1.2-2.8,2.8s1.2,2.8,2.8,2.8h40.9c1.5,0,2.8-1.2,2.8-2.8S81.7,54.9,80.1,54.9
			L80.1,54.9z M80.1,54.9"/>
		<path class="st29" d="M80.1,68.2H39.2c-1.5,0-2.8,1.2-2.8,2.8c0,1.5,1.2,2.8,2.8,2.8h40.9c1.5,0,2.8-1.2,2.8-2.8
			C82.9,69.5,81.7,68.2,80.1,68.2L80.1,68.2z M80.1,68.2"/>
	</g>
</g>
<g id="guidelines">
</g>
</svg>
