<?xml version="1.0" encoding="utf-8"?>
<!-- Generator: Adobe Illustrator 21.1.0, SVG Export Plug-In . SVG Version: 6.00 Build 0)  -->
<svg version="1.1" xmlns="http://www.w3.org/2000/svg" xmlns:xlink="http://www.w3.org/1999/xlink" x="0px" y="0px"
	 viewBox="0 0 119.4 115.3" style="enable-background:new 0 0 119.4 115.3;" xml:space="preserve">
<style type="text/css">
	.st0{fill:#FFFFFF;}
	.st1{fill:none;stroke:#CFD1D2;stroke-width:3;stroke-linecap:round;stroke-linejoin:round;stroke-miterlimit:10;}
	.st2{fill:#FFFFFF;stroke:#CFD1D2;stroke-width:3;stroke-miterlimit:10;}
	.st3{fill:#F0F0F1;stroke:#DADADA;stroke-width:1.5;stroke-miterlimit:10;}
	.st4{fill:#F39322;}
	.st5{fill:#E3E4E3;stroke:#DADADA;stroke-width:2;stroke-miterlimit:10;}
	.st6{fill:#4E4D4D;}
	.st7{fill:#FFFFFF;stroke:#CCCBCB;stroke-miterlimit:10;}
	.st8{fill:#B3B3B2;}
	.st9{fill:#0971B7;}
	.st10{fill:#F8AE15;}
	.st11{fill:#676767;}
	.st12{fill:#F1F2F4;}
	.st13{fill:none;stroke:#A55299;stroke-miterlimit:10;}
	.st14{fill:none;stroke:#A55299;stroke-miterlimit:10;stroke-dasharray:12.2258,12.2258;}
	.st15{fill:none;stroke:#D0D2D3;stroke-width:3;stroke-linecap:round;stroke-linejoin:round;stroke-miterlimit:10;}
	.st16{fill:#FFFFFF;stroke:#D0D2D3;stroke-width:3;stroke-miterlimit:10;}
	.st17{fill:#F1F1F2;stroke:#DBDBDB;stroke-width:1.5;stroke-miterlimit:10;}
	.st18{fill:#F7941E;}
	.st19{fill:#E5E5E5;stroke:#DBDBDB;stroke-width:2;stroke-miterlimit:10;}
	.st20{fill:#D8DBDF;}
	.st21{fill:#BFC2C4;}
	.st22{fill:#FFFFFF;stroke:#FFFFFF;stroke-miterlimit:10;}
	.st23{fill:none;stroke:#000000;stroke-width:2;stroke-miterlimit:10;}
	.st24{fill:#4D4D4D;}
	.st25{fill:#666666;}
	.st26{fill:#FFFFFF;stroke:#CCCCCC;stroke-miterlimit:10;}
	.st27{fill:#808080;}
	.st28{fill:#B3B3B3;}
	.st29{fill:#FFB000;}
	.st30{fill:#F2F3F5;}
	.st31{fill:none;stroke:#FF00FF;stroke-miterlimit:10;}
	.st32{fill:none;stroke:#FF00FF;stroke-miterlimit:10;stroke-dasharray:12.2258,12.2258;}
	.st33{opacity:0.2;fill:#28348A;}
	.st34{fill:#FFFFFF;stroke:#C1272D;stroke-miterlimit:10;}
	.st35{fill:#C1272D;}
	.st36{fill:#009245;}
	.st37{fill:#999999;}
	.st38{fill:none;stroke:#E6E6E6;stroke-width:0.5;stroke-miterlimit:10;}
	.st39{fill-rule:evenodd;clip-rule:evenodd;fill:#FFFFFF;}
	.st40{opacity:0.5;}
	.st41{fill:#282725;}
	.st42{opacity:0.3;}
	.st43{fill:none;stroke:#FF00FF;stroke-miterlimit:10;stroke-dasharray:11.927,11.927;}
	.st44{opacity:0.1;}
	.st45{fill:#CCCCCC;}
	.st46{opacity:0.2;fill:#F8AE15;}
	.st47{opacity:0.3;fill:#1D70B7;}
	.st48{opacity:0.3;fill:#662482;}
	.st49{opacity:0.3;fill:#DDDB00;}
	.st50{opacity:0.3;fill:#009540;}
	.st51{fill:none;stroke:#4E4D4D;stroke-miterlimit:10;}
	.st52{fill:none;stroke:#4E4D4D;stroke-miterlimit:10;stroke-dasharray:7.467,7.467;}
	.st53{fill:none;stroke:#4E4D4D;stroke-miterlimit:10;stroke-dasharray:10.1756,10.1756;}
	.st54{opacity:0.3;fill:#006633;}
	.st55{opacity:0.3;fill:#BD1622;}
</style>
<g id="Layer_1">
	<g>
		<g>
			<path class="st45" d="M59.7,25.4C39,25.4,20.2,36.7,6.4,55.1c-1.1,1.5-1.1,3.6,0,5.1C20.2,78.6,39,89.9,59.7,89.9
				c20.7,0,39.5-11.3,53.3-29.7c1.1-1.5,1.1-3.6,0-5.1C99.2,36.7,80.4,25.4,59.7,25.4L59.7,25.4z M61.2,80.4
				c-13.7,0.9-25.1-10.5-24.2-24.2c0.7-11.3,9.9-20.5,21.3-21.3C71.9,34,83.3,45.4,82.4,59.1C81.7,70.5,72.5,79.7,61.2,80.4
				L61.2,80.4z M60.5,69.9c-7.4,0.5-13.5-5.6-13-13c0.4-6.1,5.3-11.1,11.5-11.5c7.4-0.5,13.5,5.6,13,13
				C71.5,64.6,66.6,69.5,60.5,69.9L60.5,69.9z M60.5,69.9"/>
		</g>
	</g>
	<g>
		<line class="st0" x1="11.3" y1="106.1" x2="108.1" y2="9.2"/>
		<path class="st45" d="M11.3,109.9c-1,0-1.9-0.4-2.7-1.1c-1.5-1.5-1.5-3.9,0-5.4l96.8-96.8c1.5-1.5,3.9-1.5,5.4,0s1.5,3.9,0,5.4
			l-96.8,96.8C13.2,109.5,12.2,109.9,11.3,109.9z"/>
	</g>
</g>
<g id="guidelines">
</g>
</svg>
