<?xml version="1.0" encoding="utf-8"?>
<!-- Generator: Adobe Illustrator 21.1.0, SVG Export Plug-In . SVG Version: 6.00 Build 0)  -->
<svg version="1.1" xmlns="http://www.w3.org/2000/svg" xmlns:xlink="http://www.w3.org/1999/xlink" x="0px" y="0px"
	 viewBox="0 0 119.4 115.3" style="enable-background:new 0 0 119.4 115.3;" xml:space="preserve">
<style type="text/css">
	.st0{fill:#FFFFFF;}
	.st1{fill:none;stroke:#CFD1D2;stroke-width:3;stroke-linecap:round;stroke-linejoin:round;stroke-miterlimit:10;}
	.st2{fill:#FFFFFF;stroke:#CFD1D2;stroke-width:3;stroke-miterlimit:10;}
	.st3{fill:#F0F0F1;stroke:#DADADA;stroke-width:1.5;stroke-miterlimit:10;}
	.st4{fill:#F39322;}
	.st5{fill:#E3E4E3;stroke:#DADADA;stroke-width:2;stroke-miterlimit:10;}
	.st6{fill:#4E4D4D;}
	.st7{fill:#FFFFFF;stroke:#CCCBCB;stroke-miterlimit:10;}
	.st8{fill:#B3B3B2;}
	.st9{fill:#0971B7;}
	.st10{fill:#F8AE15;}
	.st11{fill:#676767;}
	.st12{fill:#F1F2F4;}
	.st13{fill:none;stroke:#A55299;stroke-miterlimit:10;}
	.st14{fill:none;stroke:#A55299;stroke-miterlimit:10;stroke-dasharray:12.2258,12.2258;}
	.st15{fill:none;stroke:#D0D2D3;stroke-width:3;stroke-linecap:round;stroke-linejoin:round;stroke-miterlimit:10;}
	.st16{fill:#FFFFFF;stroke:#D0D2D3;stroke-width:3;stroke-miterlimit:10;}
	.st17{fill:#F1F1F2;stroke:#DBDBDB;stroke-width:1.5;stroke-miterlimit:10;}
	.st18{fill:#F7941E;}
	.st19{fill:#E5E5E5;stroke:#DBDBDB;stroke-width:2;stroke-miterlimit:10;}
	.st20{fill:#D8DBDF;}
	.st21{fill:#BFC2C4;}
	.st22{fill:#FFFFFF;stroke:#FFFFFF;stroke-miterlimit:10;}
	.st23{fill:none;stroke:#000000;stroke-width:2;stroke-miterlimit:10;}
	.st24{fill:#4D4D4D;}
	.st25{fill:#666666;}
	.st26{fill:#FFFFFF;stroke:#CCCCCC;stroke-miterlimit:10;}
	.st27{fill:#808080;}
	.st28{fill:#B3B3B3;}
	.st29{fill:#FFB000;}
	.st30{fill:#F2F3F5;}
	.st31{fill:none;stroke:#FF00FF;stroke-miterlimit:10;}
	.st32{fill:none;stroke:#FF00FF;stroke-miterlimit:10;stroke-dasharray:12.2258,12.2258;}
	.st33{opacity:0.2;fill:#28348A;}
	.st34{fill:#FFFFFF;stroke:#C1272D;stroke-miterlimit:10;}
	.st35{fill:#C1272D;}
	.st36{fill:#009245;}
	.st37{fill:#999999;}
	.st38{fill:none;stroke:#E6E6E6;stroke-width:0.5;stroke-miterlimit:10;}
	.st39{fill-rule:evenodd;clip-rule:evenodd;fill:#FFFFFF;}
	.st40{opacity:0.5;}
	.st41{fill:#282725;}
	.st42{opacity:0.3;}
	.st43{fill:none;stroke:#FF00FF;stroke-miterlimit:10;stroke-dasharray:11.927,11.927;}
	.st44{opacity:0.1;}
	.st45{opacity:0.2;fill:#F8AE15;}
	.st46{opacity:0.3;fill:#1D70B7;}
	.st47{opacity:0.3;fill:#662482;}
	.st48{opacity:0.3;fill:#DDDB00;}
	.st49{opacity:0.3;fill:#009540;}
	.st50{fill:none;stroke:#4E4D4D;stroke-miterlimit:10;}
	.st51{fill:none;stroke:#4E4D4D;stroke-miterlimit:10;stroke-dasharray:7.467,7.467;}
	.st52{fill:none;stroke:#4E4D4D;stroke-miterlimit:10;stroke-dasharray:10.1756,10.1756;}
	.st53{opacity:0.3;fill:#006633;}
	.st54{opacity:0.3;fill:#BD1622;}
</style>
<g id="Layer_1">
	<g>
		<g>
			<path class="st0" d="M78.3,53.9V39.7c0-4.9-2.1-9.6-6-13.1c-1.5-1.3-3.1-2.4-4.8-3.2c-1.1-0.5-2-1.3-2-1.8v-1
				c0-2.7-2.6-4.7-6-4.7h-3.8c-3.4,0-6,2.1-6,4.7v1.2c0,0.6-0.9,1.5-2,2.1c-5.9,3.2-9.9,9.1-9.9,15.8V54c0,1.2-0.5,3-1,4.1
				c-2.3,4.1-7.2,12.9-9.8,17.6L26,77.1c-2.3,4.1-2.6,8.1-0.8,11.2c1.8,3.1,5.5,4.8,10.3,4.8h8.4c1.2,0,2.6,0.9,3.4,1.8
				c2.4,2.7,7,4.5,12.4,4.5c5.5,0,10.1-1.8,12.4-4.5c0.8-0.9,2.1-1.8,3.4-1.8h9c4.8,0,8.4-1.7,10-4.6c1.6-3,1-6.8-1.6-10.8
				L79.5,57.8C78.9,56.8,78.3,55.1,78.3,53.9L78.3,53.9z M55.6,19.1h3.8c1.6,0,2.7,0.8,2.7,1.5v0.5c0,0.3-0.9,0.3-2.1,0.2
				c-0.7-0.1-1.4-0.1-2.1-0.1c-1,0-2,0.1-3,0.2c-1.2,0.2-2.1,0.1-2.1-0.2v-0.6C52.9,19.9,54,19.1,55.6,19.1L55.6,19.1z M51.8,94.3
				C50.7,93.7,51,93,52.2,93h14.9c1.2,0,1.5,0.7,0.4,1.3c-2,1.1-4.8,1.8-7.9,1.8C56.6,96.1,53.8,95.4,51.8,94.3L51.8,94.3z
				 M84.4,89.8H35.5c-3.6,0-6.2-1.1-7.4-3.2c-1.2-2-0.9-4.9,0.8-8c6.8-12.1,9.8-17.5,11.1-20c0.5-1.1,0.9-3,0.9-4.2L41,39.7
				c0-8.4,7.6-15.2,17-15.2c4.6,0,8.9,1.6,12.1,4.5c3.2,2.9,4.9,6.6,4.9,10.7v15.1c0,1.2,0.5,3,1.2,4l13.8,20.6
				c2,2.9,2.5,5.6,1.5,7.5C90.5,88.7,88,89.8,84.4,89.8L84.4,89.8z M84.4,89.8"/>
		</g>
	</g>
</g>
<g id="guidelines">
</g>
</svg>
