<?xml version="1.0" encoding="utf-8"?>
<!-- Generator: Adobe Illustrator 21.1.0, SVG Export Plug-In . SVG Version: 6.00 Build 0)  -->
<svg version="1.1" xmlns="http://www.w3.org/2000/svg" xmlns:xlink="http://www.w3.org/1999/xlink" x="0px" y="0px"
	 viewBox="0 0 499.2 124.5" style="enable-background:new 0 0 499.2 124.5;" xml:space="preserve">
<style type="text/css">
	.st0{fill:#FFFFFF;}
	.st1{fill:none;stroke:#CFD1D2;stroke-width:3;stroke-linecap:round;stroke-linejoin:round;stroke-miterlimit:10;}
	.st2{fill:#FFFFFF;stroke:#CFD1D2;stroke-width:3;stroke-miterlimit:10;}
	.st3{fill:#F0F0F1;stroke:#DADADA;stroke-width:1.5;stroke-miterlimit:10;}
	.st4{fill:#F39322;}
	.st5{fill:#E3E4E3;stroke:#DADADA;stroke-width:2;stroke-miterlimit:10;}
	.st6{fill:#4E4D4D;}
	.st7{fill:#FFFFFF;stroke:#CCCBCB;stroke-miterlimit:10;}
	.st8{fill:#B3B3B2;}
	.st9{fill:#0971B7;}
	.st10{fill:#F8AE15;}
	.st11{fill:#676767;}
	.st12{fill:#F1F2F4;}
	.st13{fill:none;stroke:#A55299;stroke-miterlimit:10;}
	.st14{fill:none;stroke:#A55299;stroke-miterlimit:10;stroke-dasharray:12.2258,12.2258;}
	.st15{font-family:'Sarabun-Medium';}
	.st16{font-size:48.8679px;}
	.st17{fill:none;stroke:#D0D2D3;stroke-width:3;stroke-linecap:round;stroke-linejoin:round;stroke-miterlimit:10;}
	.st18{fill:#FFFFFF;stroke:#D0D2D3;stroke-width:3;stroke-miterlimit:10;}
	.st19{fill:#F1F1F2;stroke:#DBDBDB;stroke-width:1.5;stroke-miterlimit:10;}
	.st20{fill:#F7941E;}
	.st21{fill:#E5E5E5;stroke:#DBDBDB;stroke-width:2;stroke-miterlimit:10;}
	.st22{fill:#D8DBDF;}
	.st23{fill:#BFC2C4;}
	.st24{fill:#FFFFFF;stroke:#FFFFFF;stroke-miterlimit:10;}
	.st25{fill:none;stroke:#000000;stroke-width:2;stroke-miterlimit:10;}
	.st26{fill:#4D4D4D;}
	.st27{fill:#666666;}
	.st28{fill:#FFFFFF;stroke:#CCCCCC;stroke-miterlimit:10;}
	.st29{fill:#808080;}
	.st30{fill:#B3B3B3;}
	.st31{fill:#FFB000;}
	.st32{fill:#F2F3F5;}
	.st33{fill:none;stroke:#FF00FF;stroke-miterlimit:10;}
	.st34{fill:none;stroke:#FF00FF;stroke-miterlimit:10;stroke-dasharray:12.2258,12.2258;}
	.st35{opacity:0.2;fill:#28348A;}
	.st36{fill:#FFFFFF;stroke:#C1272D;stroke-miterlimit:10;}
	.st37{fill:#C1272D;}
	.st38{fill:#009245;}
	.st39{fill:#999999;}
	.st40{fill:none;stroke:#E6E6E6;stroke-width:0.5;stroke-miterlimit:10;}
	.st41{fill-rule:evenodd;clip-rule:evenodd;fill:#FFFFFF;}
	.st42{opacity:0.5;}
	.st43{fill:#282725;}
	.st44{opacity:0.3;}
	.st45{fill:none;stroke:#FF00FF;stroke-miterlimit:10;stroke-dasharray:11.927,11.927;}
	.st46{opacity:0.1;}
	.st47{fill:#CCCCCC;}
	.st48{opacity:0.2;fill:#F8AE15;}
	.st49{opacity:0.3;fill:#1D70B7;}
	.st50{opacity:0.3;fill:#662482;}
	.st51{opacity:0.3;fill:#DDDB00;}
	.st52{opacity:0.3;fill:#009540;}
	.st53{fill:none;stroke:#4E4D4D;stroke-miterlimit:10;}
	.st54{fill:none;stroke:#4E4D4D;stroke-miterlimit:10;stroke-dasharray:7.467,7.467;}
	.st55{fill:none;stroke:#4E4D4D;stroke-miterlimit:10;stroke-dasharray:10.1756,10.1756;}
	.st56{opacity:0.3;fill:#006633;}
	.st57{opacity:0.3;fill:#BD1622;}
</style>
<g id="Layer_1">
	<g>
		<g>
			<g>
				<path class="st0" d="M1.6,122.6c0,0,33.7-105.5,102.4-101.2c0,0-22.9,29.2-44.4,33.7c0,0,13.9,4.6,22.8-1.3
					c0,0-9.8,17.6-36.3,19.8c0,0,12.4,6.4,21.1,1.6c0,0-11.3,18.1-35.9,18.1c0,0,13.3,5.1,21.4,2.4c0,0-10.9,15.7-37,14.3
					c-2.6-0.1-3.2-0.4-3.2-0.4L1.6,122.6z M1.6,122.6"/>
			</g>
		</g>
		<g>
			<path class="st0" d="M121.2,111.9c-0.2,0.5-0.4,0.9-0.6,1.3c-0.2,0.4-0.3,0.7-0.5,0.9c-0.2,0.2-0.4,0.4-0.7,0.6
				c-0.3,0.1-0.7,0.2-1.1,0.2h-7.5c-2,0-3-1-3-2.9v-57c0-0.4,0.1-0.8,0.2-1.2c0.2-0.4,0.4-0.7,0.6-0.9c0.3-0.3,0.6-0.5,0.9-0.6
				s0.7-0.2,1-0.2h8.7c1,0,1.7,0.3,2.3,0.8s0.8,1.2,0.8,2.1v17.4c0.7-0.8,1.5-1.5,2.3-2.3c0.8-0.8,1.7-1.5,2.7-2.2
				c1-0.6,2-1.2,3.1-1.6s2.4-0.6,3.8-0.6c3.5,0,6.6,0.6,9.5,1.9c2.9,1.3,5.4,3.1,7.5,5.3c2.1,2.3,3.7,4.9,4.9,7.9
				c1.2,3,1.8,6.3,1.8,9.9c0,3.5-0.6,6.8-1.8,9.8c-1.2,3.1-2.8,5.7-4.9,8c-2.1,2.3-4.6,4-7.5,5.3c-2.9,1.3-6.1,1.9-9.5,1.9
				c-1.3,0-2.5-0.2-3.7-0.7c-1.1-0.4-2.2-1-3.2-1.7c-1-0.7-1.9-1.4-2.7-2.2s-1.6-1.5-2.3-2.2L121.2,111.9z M144.2,90.6
				c0-1.6-0.3-3.2-0.8-4.7c-0.5-1.5-1.3-2.8-2.2-3.9c-1-1.1-2.1-2-3.5-2.7c-1.3-0.6-2.9-1-4.5-1c-1.7,0-3.2,0.3-4.7,1
				c-1.5,0.6-2.7,1.5-3.8,2.7c-1.1,1.1-1.9,2.4-2.5,3.9c-0.6,1.5-0.9,3-0.9,4.7v0.5c0.1,1.6,0.4,3.1,1.1,4.5
				c0.6,1.4,1.5,2.6,2.6,3.6c1.1,1,2.3,1.8,3.7,2.4c1.4,0.6,2.9,0.9,4.6,0.9c1.7,0,3.2-0.3,4.5-0.9c1.3-0.6,2.5-1.5,3.5-2.5
				c1-1.1,1.7-2.3,2.2-3.8C143.9,93.9,144.2,92.3,144.2,90.6z"/>
			<path class="st0" d="M163.3,54.9c0-0.8,0.2-1.5,0.6-2.1c0.4-0.6,1.1-0.8,2.1-0.8h9.3c0.3,0,0.5,0.1,0.8,0.2
				c0.3,0.1,0.5,0.3,0.8,0.6c0.2,0.3,0.4,0.6,0.6,0.9s0.2,0.7,0.2,1.2v57c0,1-0.3,1.7-0.8,2.2c-0.5,0.5-1.3,0.7-2.1,0.7H166
				c-1,0-1.7-0.2-2.1-0.7c-0.4-0.5-0.6-1.2-0.6-2.2V54.9z"/>
			<path class="st0" d="M286.1,55.3c0-0.8,0.2-1.5,0.6-2.1c0.4-0.6,1.1-0.8,2.1-0.8h9.3c0.3,0,0.5,0.1,0.8,0.2
				c0.3,0.1,0.5,0.3,0.8,0.6c0.2,0.3,0.4,0.6,0.6,0.9s0.2,0.7,0.2,1.2v57c0,1-0.3,1.7-0.8,2.2c-0.5,0.5-1.3,0.7-2.1,0.7h-8.8
				c-1,0-1.7-0.2-2.1-0.7c-0.4-0.5-0.6-1.2-0.6-2.2V55.3z"/>
			<path class="st0" d="M234.5,112c0,0.4-0.1,0.8-0.2,1.2c-0.2,0.4-0.4,0.7-0.8,0.9c-0.3,0.3-0.6,0.5-1,0.5c-0.4,0.1-0.7,0.1-1,0.1
				H224c-0.5,0-1-0.1-1.3-0.2c-0.3-0.1-0.6-0.3-0.8-0.6c-0.2-0.3-0.4-0.6-0.5-0.9c-0.1-0.4-0.3-0.8-0.4-1.2l-1.1-2.9
				c-0.7,0.7-1.4,1.4-2.2,2.2c-0.8,0.8-1.7,1.5-2.7,2.2c-1,0.7-2,1.2-3.2,1.7c-1.1,0.4-2.4,0.7-3.7,0.7c-2.3,0-4.5-0.3-6.7-0.9
				s-4.1-1.4-5.9-2.5c-1.8-1.1-3.5-2.4-5-3.9c-1.5-1.5-2.8-3.2-3.9-5.1c-1.1-1.9-1.9-3.9-2.5-6c-0.6-2.1-0.9-4.4-0.9-6.7
				c0-3.5,0.6-6.8,1.9-9.9c1.3-3,3.1-5.7,5.3-7.9c2.2-2.3,4.9-4,7.9-5.3c3-1.3,6.3-1.9,9.7-1.9c1.6,0,3,0.2,4.3,0.7
				c1.3,0.5,2.5,1.1,3.6,1.9c1.1,0.8,2.1,1.6,2.9,2.6c0.9,1,1.7,1.9,2.3,2.9l1.5-4.6c0.3-0.6,0.5-1.1,0.6-1.5
				c0.2-0.4,0.3-0.7,0.5-0.9c0.2-0.2,0.4-0.3,0.7-0.4s0.7-0.1,1.2-0.1h5.7c0.3,0,0.6,0,1,0.1c0.4,0.1,0.7,0.3,1,0.5
				c0.4,0.3,0.6,0.6,0.8,1s0.2,0.8,0.2,1.2V112z M196.9,90.6c0,1.7,0.3,3.3,0.8,4.7c0.5,1.5,1.3,2.7,2.2,3.8c1,1.1,2.1,1.9,3.5,2.5
				c1.4,0.6,2.9,0.9,4.5,0.9c1.7,0,3.3-0.3,4.7-0.9c1.5-0.6,2.7-1.5,3.8-2.5c1.1-1.1,1.9-2.3,2.5-3.8c0.6-1.5,0.9-3,0.9-4.7
				c0-1.6-0.3-3.2-0.9-4.7c-0.6-1.5-1.5-2.8-2.5-3.9c-1.1-1.1-2.4-2-3.8-2.7c-1.5-0.6-3-1-4.7-1c-1.7,0-3.2,0.3-4.5,1
				c-1.4,0.6-2.5,1.5-3.5,2.7c-1,1.1-1.7,2.4-2.2,3.9C197.2,87.5,196.9,89,196.9,90.6z"/>
			<path class="st0" d="M272.3,99.9c0.4-0.3,0.7-0.4,1-0.5c0.3-0.1,0.6-0.1,0.7-0.1c0.4,0,0.8,0.1,1.2,0.3c0.4,0.2,0.7,0.6,1.1,1.1
				l4.3,6.4c0.1,0.2,0.2,0.4,0.4,0.7c0.1,0.3,0.2,0.5,0.2,0.6c0,0.6-0.2,1.1-0.6,1.4s-0.8,0.7-1.2,1c-2.1,1.4-4.4,2.6-6.8,3.5
				c-2.5,0.9-5.1,1.3-7.9,1.3c-2.3,0-4.5-0.3-6.6-0.9s-4.1-1.4-5.9-2.5c-1.8-1.1-3.5-2.4-5-3.9c-1.5-1.5-2.8-3.2-3.9-5.1
				c-1.1-1.9-1.9-3.9-2.5-6c-0.6-2.1-0.9-4.4-0.9-6.7c0-2.3,0.3-4.6,0.9-6.8c0.6-2.2,1.4-4.2,2.5-6c1.1-1.8,2.4-3.5,3.9-5
				c1.5-1.5,3.2-2.8,5-3.9c1.8-1.1,3.8-1.9,5.9-2.5s4.3-0.9,6.6-0.9c2.8,0,5.3,0.4,7.7,1.1c2.4,0.7,4.6,1.8,6.6,3.3l-0.1-0.1
				c0.6,0.3,1,0.7,1.3,1.2c0.3,0.4,0.5,1,0.5,1.7c0,0.5-0.2,0.9-0.5,1.4l-3.4,5.8c-0.7,1.2-1.6,1.9-2.6,1.9c-0.2,0-0.5-0.1-0.8-0.2
				c-0.3-0.1-0.7-0.3-1.1-0.6c-1.1-0.7-2.3-1.3-3.6-1.8c-1.3-0.5-2.7-0.7-4.1-0.7c-1.6,0-3.1,0.3-4.4,1c-1.3,0.6-2.5,1.5-3.5,2.7
				c-1,1.1-1.7,2.4-2.2,3.9c-0.5,1.5-0.8,3-0.8,4.7c0,1.7,0.3,3.3,0.8,4.7c0.5,1.5,1.3,2.7,2.2,3.8c1,1.1,2.1,1.9,3.5,2.5
				c1.3,0.6,2.8,0.9,4.4,0.9c1.4,0,2.8-0.3,4.1-0.8C269.9,101.3,271.2,100.7,272.3,99.9z"/>
			<path class="st0" d="M347,111.9c-0.2,0.5-0.4,0.9-0.6,1.3c-0.2,0.4-0.3,0.7-0.5,0.9c-0.2,0.2-0.4,0.4-0.7,0.6
				c-0.3,0.1-0.7,0.2-1.1,0.2h-7.5c-2,0-3-1-3-2.9v-57c0-0.4,0.1-0.8,0.2-1.2s0.4-0.7,0.6-0.9s0.6-0.5,0.9-0.6
				c0.3-0.1,0.7-0.2,1-0.2h8.7c1,0,1.7,0.3,2.3,0.8s0.8,1.2,0.8,2.1v17.4c0.7-0.8,1.5-1.5,2.3-2.3c0.8-0.8,1.7-1.5,2.7-2.2
				c1-0.6,2-1.2,3.1-1.6c1.1-0.4,2.4-0.6,3.8-0.6c3.5,0,6.6,0.6,9.5,1.9c2.9,1.3,5.4,3.1,7.5,5.3c2.1,2.3,3.7,4.9,4.9,7.9
				c1.2,3,1.8,6.3,1.8,9.9c0,3.5-0.6,6.8-1.8,9.8c-1.2,3.1-2.8,5.7-4.9,8c-2.1,2.3-4.6,4-7.5,5.3c-2.9,1.3-6.1,1.9-9.5,1.9
				c-1.3,0-2.5-0.2-3.7-0.7c-1.1-0.4-2.2-1-3.2-1.7c-1-0.7-1.9-1.4-2.7-2.2c-0.8-0.8-1.6-1.5-2.3-2.2L347,111.9z M370,90.6
				c0-1.6-0.3-3.2-0.8-4.7c-0.5-1.5-1.3-2.8-2.2-3.9c-1-1.1-2.1-2-3.5-2.7c-1.3-0.6-2.9-1-4.5-1c-1.7,0-3.2,0.3-4.7,1
				c-1.5,0.6-2.7,1.5-3.8,2.7c-1.1,1.1-1.9,2.4-2.5,3.9c-0.6,1.5-0.9,3-0.9,4.7v0.5c0.1,1.6,0.4,3.1,1.1,4.5
				c0.6,1.4,1.5,2.6,2.6,3.6c1.1,1,2.3,1.8,3.7,2.4c1.4,0.6,2.9,0.9,4.6,0.9c1.7,0,3.2-0.3,4.5-0.9c1.3-0.6,2.5-1.5,3.5-2.5
				c1-1.1,1.7-2.3,2.2-3.8C369.8,93.9,370,92.3,370,90.6z"/>
			<path class="st0" d="M389.1,50.1c0-1.1,0.2-1.8,0.7-2.3c0.5-0.4,1.2-0.7,2.1-0.7h8.8c0.9,0,1.6,0.2,2.2,0.7
				c0.5,0.4,0.8,1.2,0.8,2.3v7.4c0,0.3-0.1,0.6-0.2,1s-0.3,0.7-0.6,1c-0.3,0.3-0.6,0.6-0.9,0.8c-0.4,0.2-0.8,0.3-1.2,0.3h-8.8
				c-1.9,0-2.8-1.1-2.8-3.2V50.1z M389.1,69.4c0-0.8,0.2-1.5,0.7-2.1c0.5-0.6,1.2-0.9,2.1-0.9h8.7c0.3,0,0.6,0.1,1,0.2
				c0.4,0.1,0.7,0.3,1,0.6c0.3,0.3,0.6,0.6,0.8,0.9c0.2,0.4,0.3,0.8,0.3,1.2v42.5c0,1-0.3,1.7-0.8,2.2c-0.5,0.5-1.3,0.7-2.3,0.7
				h-8.7c-1.9,0-2.8-1-2.8-2.9V69.4z"/>
			<path class="st0" d="M316.6,69.3c0.6-0.6,1.2-0.9,2-1c0.7-0.1,1.4,0.2,2.1,0.9l6.2,6.2c0.2,0.2,0.4,0.5,0.6,0.8
				c0.2,0.4,0.2,0.7,0.3,1.1c0,0.4,0,0.8-0.1,1.2c-0.1,0.4-0.3,0.8-0.6,1.1l-20.5,20.5c-0.7,0.7-1.4,1-2.1,1c-0.7,0-1.4-0.4-2.1-1.1
				l-6.2-6.2c-1.3-1.3-1.3-2.7,0.1-4.1L316.6,69.3z"/>
			<path class="st0" d="M296,94.1c-0.6-0.6-0.9-1.2-1-2c-0.1-0.7,0.2-1.4,0.9-2.1l6.2-6.2c0.2-0.2,0.5-0.4,0.8-0.6
				c0.4-0.2,0.7-0.2,1.1-0.3s0.8,0,1.2,0.1c0.4,0.1,0.8,0.3,1.1,0.6l20.5,20.5c0.7,0.7,1,1.4,1,2.1c0,0.7-0.4,1.4-1.1,2.1l-6.2,6.2
				c-1.3,1.3-2.7,1.3-4.1-0.1L296,94.1z"/>
			<path class="st0" d="M410.6,69.2c0-0.4,0.1-0.8,0.3-1.2c0.2-0.4,0.4-0.7,0.7-0.9c0.7-0.4,1.3-0.6,2.1-0.6h5.8
				c0.5,0,0.9,0.1,1.1,0.3c0.3,0.2,0.5,0.4,0.7,0.7c0.2,0.3,0.4,0.6,0.5,1s0.3,0.7,0.5,1.1c0.1,0.1,0.2,0.4,0.3,0.7
				c0.2,0.4,0.3,0.8,0.5,1.3c0.2,0.5,0.3,0.9,0.5,1.3c0.2,0.4,0.3,0.7,0.3,0.8c0.8-0.8,1.5-1.7,2.2-2.7c0.7-0.9,1.4-1.8,2.2-2.6
				c0.8-0.8,1.7-1.4,2.6-1.9c1-0.5,2.1-0.8,3.4-0.8c1.4,0,2.6,0.1,3.7,0.3c1.1,0.2,2.1,0.5,3.1,0.9c1,0.4,1.9,0.9,2.9,1.5
				c1,0.6,2,1.3,3.1,2.1c1.8,0.9,2.1,2.3,1,4.2l-3.5,5.9c-0.5,0.8-1.1,1.2-1.9,1.4c-0.7,0.2-1.5,0.1-2.4-0.3
				c-1.1-1.1-2.2-1.9-3.3-2.4c-1.1-0.5-2.4-0.8-3.9-0.8c-1,0-1.9,0.1-2.6,0.4c-0.7,0.3-1.4,0.7-2,1.2c-0.6,0.5-1.2,1.1-1.7,1.8
				c-0.5,0.7-1.1,1.5-1.6,2.4v27.6c0,1-0.2,1.7-0.7,2.2c-0.5,0.5-1.3,0.7-2.3,0.7h-8.6c-2,0-3-1-3-2.9V69.2z"/>
			<path class="st0" d="M482.6,108.9c-0.7,0.7-1.4,1.4-2.3,2.2s-1.7,1.5-2.7,2.2c-1,0.7-2.1,1.3-3.2,1.7c-1.1,0.4-2.4,0.7-3.7,0.7
				c-3.5,0-6.6-0.6-9.6-1.9c-2.9-1.3-5.4-3.1-7.5-5.3c-2.1-2.3-3.7-4.9-4.9-8c-1.2-3.1-1.8-6.3-1.8-9.8c0-3.5,0.6-6.8,1.8-9.9
				c1.2-3,2.8-5.7,4.9-7.9c2.1-2.3,4.6-4,7.5-5.3c2.9-1.3,6.1-1.9,9.6-1.9c1.4,0,2.7,0.2,3.8,0.6s2.2,0.9,3.2,1.6
				c1,0.6,1.8,1.4,2.6,2.2c0.8,0.8,1.6,1.6,2.3,2.3V54.9c0-0.8,0.2-1.5,0.7-2.1c0.5-0.6,1.2-0.8,2.2-0.8h8.6c0.3,0,0.7,0.1,1,0.2
				c0.4,0.1,0.7,0.3,1,0.6c0.3,0.3,0.6,0.6,0.7,0.9c0.2,0.4,0.3,0.7,0.3,1.2v57c0,2-1,2.9-3.1,2.9h-7.5c-0.5,0-0.9-0.1-1.2-0.2
				c-0.3-0.1-0.5-0.3-0.7-0.6c-0.2-0.2-0.4-0.5-0.5-0.9c-0.2-0.4-0.3-0.8-0.6-1.3L482.6,108.9z M460.7,90.6c0,1.7,0.3,3.3,0.8,4.7
				c0.5,1.5,1.3,2.7,2.2,3.8c1,1.1,2.1,1.9,3.5,2.5c1.4,0.6,2.9,0.9,4.5,0.9c1.6,0,3.2-0.3,4.6-0.9c1.4-0.6,2.7-1.4,3.8-2.4
				c1.1-1,1.9-2.2,2.6-3.6c0.6-1.4,1-2.9,1.1-4.5v-0.5c0-1.6-0.3-3.2-0.9-4.7c-0.6-1.5-1.5-2.8-2.5-3.9c-1.1-1.1-2.4-2-3.8-2.7
				c-1.5-0.6-3-1-4.7-1c-1.7,0-3.2,0.3-4.5,1c-1.4,0.6-2.5,1.5-3.5,2.7c-1,1.1-1.7,2.4-2.2,3.9C460.9,87.5,460.7,89,460.7,90.6z"/>
		</g>
	</g>
	<g>
		<text transform="matrix(1 0 0 1 120.679 37.5879)" class="st0 st15 st16">Welcome to</text>
	</g>
</g>
<g id="guidelines">
</g>
</svg>
